<?xml version="1.0" encoding="UTF-8"?>
<svg version="1.1" xmlns="http://www.w3.org/2000/svg" width="4500" height="4500">
<path d="M0 0 C1485 0 2970 0 4500 0 C4500 1485 4500 2970 4500 4500 C3015 4500 1530 4500 0 4500 C0 3015 0 1530 0 0 Z " fill="#000000" transform="translate(0,0)"/>
<path d="M0 0 C2.52126347 1.2259507 4.93286235 2.5272717 7.34521484 3.95532227 C8.26753906 4.49801758 9.18986328 5.04071289 10.14013672 5.59985352 C11.13464844 6.18895508 12.12916016 6.77805664 13.15380859 7.38500977 C22.26357934 12.74238262 31.40716685 18.03163319 40.59130859 23.26000977 C50.26668878 28.77163945 59.90414356 34.3442634 69.51318359 39.97094727 C77.17704834 44.45167242 84.87816694 48.86495201 92.59130859 53.26000977 C102.31255365 58.79986909 112.00025728 64.39375908 121.65820312 70.04345703 C132.18215484 76.19767718 142.74510997 82.28370973 153.30908203 88.36889648 C158.73790802 91.49681125 164.16450141 94.62859424 169.59130859 97.76000977 C171.75796442 99.01002856 173.92463109 100.26002855 176.09130859 101.51000977 C423.09130859 244.01000977 423.09130859 244.01000977 426.34692383 245.88842773 C428.4946668 247.12739211 430.64261314 248.36600401 432.79077148 249.60424805 C437.88310297 252.54015081 442.97322555 255.47970732 448.0562439 258.43170166 C450.46564867 259.8306903 452.87620949 261.22768005 455.28686523 262.62451172 C456.99429842 263.61499048 458.70004831 264.60836916 460.40576172 265.60180664 C461.43507813 266.19799805 462.46439453 266.79418945 463.52490234 267.40844727 C464.43296631 267.93615723 465.34103027 268.46386719 466.27661133 269.00756836 C468.6387236 270.37211486 468.6387236 270.37211486 471.59130859 271.26000977 C474.0304545 270.23382044 474.0304545 270.23382044 476.65771484 268.60375977 C477.68703125 268.00112305 478.71634766 267.39848633 479.77685547 266.77758789 C480.89125 266.11178711 482.00564453 265.44598633 483.15380859 264.76000977 C484.32439857 264.07078083 485.49563348 263.3826462 486.66748047 262.69555664 C489.10441859 261.26555514 491.53849702 259.83085633 493.97070312 258.39282227 C499.48526239 255.13756902 505.04010574 251.95221615 510.59130859 248.76000977 C512.75816797 247.51034386 514.92483399 246.26034262 517.09130859 245.01000977 C556.09130858 222.51000977 556.09130858 222.51000977 559.34179688 220.63476562 C561.5068793 219.38565458 563.67191842 218.13646847 565.83691406 216.88720703 C571.27746565 213.74798667 576.71878075 210.61010414 582.16162109 207.47485352 C592.61337059 201.45253648 603.05430407 195.41331639 613.46630859 189.32250977 C622.7369479 183.90042278 632.05067558 178.55676965 641.3817749 173.23977661 C649.47838703 168.62516948 657.5491966 163.9691609 665.59130859 159.26000977 C674.22628417 154.20370054 682.89737179 149.21393854 691.59130859 144.26000977 C701.31255365 138.72015044 711.00025728 133.12626045 720.65820312 127.4765625 C731.18215484 121.32234235 741.74510997 115.23630981 752.30908203 109.15112305 C757.73790802 106.02320828 763.16450141 102.89142529 768.59130859 99.76000977 C770.75796442 98.50999098 772.92463109 97.25999098 775.09130859 96.01000977 C776.16380859 95.39125977 777.23630859 94.77250977 778.34130859 94.13500977 C816.25797526 72.26000977 854.17464193 50.38500977 892.09130859 28.51000977 C893.16541992 27.89029297 894.23953125 27.27057617 895.34619141 26.63208008 C897.49645179 25.39161991 899.64684083 24.15138274 901.79736328 22.91137695 C906.86028369 19.99170315 911.92189191 17.06982501 916.97888184 14.13989258 C919.35943032 12.76082946 921.74072166 11.38305192 924.12207031 10.00537109 C925.79613509 9.03616318 927.46912771 8.06510411 929.14208984 7.09399414 C930.16173828 6.50424805 931.18138672 5.91450195 932.23193359 5.30688477 C933.12428711 4.78964844 934.01664063 4.27241211 934.93603516 3.73950195 C936.25039551 3.00715332 936.25039551 3.00715332 937.59130859 2.26000977 C939.06277344 1.34034424 939.06277344 1.34034424 940.56396484 0.40209961 C943.59130859 -0.73999023 943.59130859 -0.73999023 946.43017578 0.15014648 C947.40631836 0.74069824 948.38246094 1.33125 949.38818359 1.93969727 C950.49822754 2.59397705 951.60827148 3.24825684 952.75195312 3.92236328 C953.94857213 4.65964084 955.14501944 5.39719712 956.34130859 6.13500977 C957.59229461 6.88216228 958.84476185 7.62683981 960.09863281 8.36914062 C962.68005017 9.90081945 965.25394961 11.44409167 967.82275391 12.99682617 C973.40253167 16.36089965 979.06305973 19.5840478 984.71630859 22.82250977 C986.86528824 24.06245604 989.01372555 25.30334274 991.16162109 26.54516602 C997.63640881 30.28652632 1004.11367203 34.02358459 1010.59130859 37.76000977 C1012.7579861 39.00999098 1014.92465277 40.25999098 1017.09130859 41.51000977 C1018.70005859 42.43813477 1018.70005859 42.43813477 1020.34130859 43.38500977 C1032.25797526 50.26000977 1044.17464193 57.13500977 1056.09130859 64.01000977 C1057.16396973 64.62884033 1058.23663086 65.2476709 1059.34179688 65.88525391 C1061.5068793 67.13436495 1063.67191842 68.38355106 1065.83691406 69.6328125 C1071.27746565 72.77203286 1076.71878075 75.90991539 1082.16162109 79.04516602 C1092.61337059 85.06748305 1103.05430407 91.10670314 1113.46630859 97.19750977 C1122.7369479 102.61959675 1132.05067558 107.96324988 1141.3817749 113.28024292 C1150.45909495 118.45379763 1159.49702392 123.69143131 1168.51318359 128.97094727 C1176.17704834 133.45167242 1183.87816694 137.86495201 1191.59130859 142.26000977 C1201.31255365 147.79986909 1211.00025728 153.39375908 1220.65820312 159.04345703 C1231.18215484 165.19767718 1241.74510997 171.28370973 1252.30908203 177.36889648 C1257.73790802 180.49681125 1263.16450141 183.62859424 1268.59130859 186.76000977 C1270.75796442 188.01002856 1272.92463109 189.26002855 1275.09130859 190.51000977 C1348.75797526 233.01000977 1422.42464193 275.51000977 1496.09130859 318.01000977 C1497.16396973 318.62884033 1498.23663086 319.2476709 1499.34179688 319.88525391 C1501.5068793 321.13436495 1503.67191842 322.38355106 1505.83691406 323.6328125 C1511.27746565 326.77203286 1516.71878075 329.90991539 1522.16162109 333.04516602 C1532.61337059 339.06748305 1543.05430407 345.10670314 1553.46630859 351.19750977 C1562.14393101 356.272761 1570.85736427 361.28259743 1579.59130859 366.26000977 C1589.31246476 371.80002706 1599.00025517 377.39375785 1608.65820312 383.04345703 C1619.16459119 389.18740627 1629.70994729 395.26320733 1640.25634766 401.33813477 C1643.67884405 403.3104548 1647.10014633 405.2848359 1650.52099609 407.26000977 C1651.6632666 407.9194458 1652.80553711 408.57888184 1653.98242188 409.25830078 C1656.13454248 410.50079925 1658.28656937 411.74346008 1660.43847656 412.98632812 C1668.14354428 417.43338496 1675.86692995 421.84607911 1683.59130859 426.26000977 C1683.59130859 709.07000977 1683.59130859 991.88000977 1683.59130859 1283.26000977 C1675.34130859 1287.88000977 1667.09130859 1292.50000977 1658.59130859 1297.26000977 C1649.62816669 1302.46531324 1649.62816669 1302.46531324 1640.68115234 1307.69750977 C1634.3756044 1311.39214287 1628.04836423 1315.04853658 1621.71630859 1318.69750977 C1620.63615479 1319.32004639 1619.55600098 1319.94258301 1618.44311523 1320.58398438 C1616.25334525 1321.84577803 1614.06348504 1323.1074151 1611.87353516 1324.36889648 C1606.44470917 1327.49681125 1601.01811578 1330.62859424 1595.59130859 1333.76000977 C1593.42465277 1335.01002856 1591.2579861 1336.26002855 1589.09130859 1337.51000977 C1588.01880859 1338.12875977 1586.94630859 1338.74750977 1585.84130859 1339.38500977 C1342.09130862 1480.01000975 1342.09130862 1480.01000975 1338.84082031 1481.88525391 C1336.67573789 1483.13436495 1334.51069877 1484.38355106 1332.34570312 1485.6328125 C1326.90515154 1488.77203286 1321.46383644 1491.90991539 1316.02099609 1495.04516602 C1305.5692466 1501.06748305 1295.12831311 1507.10670314 1284.71630859 1513.19750977 C1275.45268024 1518.61549628 1266.14611223 1523.95532104 1256.82199097 1529.26815796 C1246.35461793 1535.23374304 1235.93753371 1541.28190461 1225.54052734 1547.36938477 C1224.68894043 1547.86631836 1223.83735352 1548.36325195 1222.95996094 1548.87524414 C1221.45204916 1549.75680213 1219.94684585 1550.64302153 1218.4453125 1551.53540039 C1213.81085216 1554.26000977 1213.81085216 1554.26000977 1211.59130859 1554.26000977 C1211.59624496 1555.42498725 1211.60118132 1556.58996474 1211.60626727 1557.79024458 C1211.82293971 1609.12643907 1212.02350411 1660.46266946 1212.14176941 1711.79919434 C1212.14446152 1712.96480034 1212.14446152 1712.96480034 1212.14720802 1714.15395393 C1212.18611479 1731.04133023 1212.2221273 1747.92871154 1212.25515788 1764.81610033 C1212.27137341 1773.09753479 1212.28822859 1781.3789679 1212.30541992 1789.66040039 C1212.30711979 1790.48450748 1212.30881966 1791.30861458 1212.31057104 1792.15769462 C1212.36598003 1818.87496638 1212.46363508 1845.59188098 1212.58317246 1872.30893632 C1212.70577819 1899.76160614 1212.785815 1927.21407827 1212.81220346 1954.66701726 C1212.81594954 1958.54352003 1212.82018282 1962.42002212 1212.82471275 1966.29652405 C1212.82558925 1967.05948373 1212.82646575 1967.82244341 1212.82736881 1968.60852308 C1212.84273819 1980.89590448 1212.90305051 1993.18267504 1212.98012504 2005.46980722 C1213.05663286 2017.81923847 1213.08589962 2030.16806351 1213.0668265 2042.5177235 C1213.05780158 2049.21093408 1213.07148879 2055.90213362 1213.14097977 2062.59513855 C1213.20411092 2068.72017961 1213.20753395 2074.84221537 1213.16299423 2080.96739298 C1213.15748771 2083.18561599 1213.1741022 2085.40402429 1213.21478996 2087.62188095 C1213.49464516 2103.81518551 1213.49464516 2103.81518551 1210.30057298 2107.91795182 C1206.81670162 2110.9793581 1202.91647846 2112.62401708 1198.59130859 2114.26000977 C1197.3418619 2114.95360383 1196.10430489 2115.6703702 1194.89428711 2116.43066406 C1193.44687134 2117.24917847 1193.44687134 2117.24917847 1191.97021484 2118.08422852 C1190.86210449 2118.71337158 1189.75399414 2119.34251465 1188.61230469 2119.99072266 C1187.47100098 2120.6364624 1186.32969727 2121.28220215 1185.15380859 2121.94750977 C1176.54887468 2126.83510419 1167.97353547 2131.76605288 1159.46630859 2136.82250977 C1148.3376452 2143.43421498 1137.12657112 2149.89900586 1125.90576172 2156.3527832 C1120.46480294 2159.48365901 1115.02825611 2162.62217519 1109.59130859 2165.76000977 C1107.42466361 2167.01004735 1105.25799693 2168.26004733 1103.09130859 2169.51000977 C1102.01880859 2170.12875977 1100.94630859 2170.74750977 1099.84130859 2171.38500977 C960.09130856 2252.01000978 960.09130856 2252.01000978 956.84082031 2253.88525391 C954.67573789 2255.13436495 952.51069877 2256.38355106 950.34570312 2257.6328125 C944.90515154 2260.77203286 939.46383644 2263.90991539 934.02099609 2267.04516602 C923.5692466 2273.06748305 913.12831311 2279.10670314 902.71630859 2285.19750977 C893.44631082 2290.61922154 884.13299107 2295.96205892 874.80285645 2301.27923584 C865.67848019 2306.48046105 856.58998085 2311.74028854 847.52441406 2317.04345703 C837.00046235 2323.19767718 826.43750722 2329.28370973 815.87353516 2335.36889648 C810.44470917 2338.49681125 805.01811578 2341.62859424 799.59130859 2344.76000977 C797.42465277 2346.01002856 795.2579861 2347.26002855 793.09130859 2348.51000977 C792.01880859 2349.12875977 790.94630859 2349.74750977 789.84130859 2350.38500977 C546.09130858 2491.01000977 546.09130858 2491.01000977 542.84082031 2492.88525391 C540.67573789 2494.13436495 538.51069877 2495.38355106 536.34570312 2496.6328125 C530.90515154 2499.77203286 525.46383644 2502.90991539 520.02099609 2506.04516602 C509.05213828 2512.3651118 498.09230475 2518.70012863 487.15380859 2525.07250977 C486.13464355 2525.66555908 485.11547852 2526.2586084 484.06542969 2526.86962891 C483.12650879 2527.4173999 482.18758789 2527.9651709 481.22021484 2528.52954102 C480.39593994 2529.01011963 479.57166504 2529.49069824 478.72241211 2529.98583984 C476.98101575 2531.02700694 475.27946672 2532.13457102 473.59130859 2533.26000977 C466.33931184 2533.3560627 460.81991035 2529.26255268 454.77880859 2525.63500977 C453.62653254 2524.95475437 452.47352271 2524.27574057 451.31982422 2523.59790039 C448.92617116 2522.19024774 446.53574752 2520.77733277 444.14746094 2519.3605957 C438.65784638 2516.11015866 433.12224313 2512.93942377 427.59130859 2509.76000977 C425.42442757 2508.51038139 423.25776149 2507.26038023 421.09130859 2506.01000977 C419.48255859 2505.08188477 419.48255859 2505.08188477 417.84130859 2504.13500977 C334.96630859 2456.32250977 334.96630859 2456.32250977 252.09130859 2408.51000977 C250.48231689 2407.58176392 250.48231689 2407.58176392 248.84082031 2406.63476562 C246.67573789 2405.38565458 244.51069877 2404.13646847 242.34570312 2402.88720703 C236.90515154 2399.74798667 231.46383644 2396.61010414 226.02099609 2393.47485352 C215.5692466 2387.45253648 205.12831311 2381.41331639 194.71630859 2375.32250977 C185.44566929 2369.90042278 176.13194161 2364.55676965 166.80084229 2359.23977661 C157.72352224 2354.0662219 148.68559327 2348.82858822 139.66943359 2343.54907227 C132.00556885 2339.06834711 124.30445025 2334.65506752 116.59130859 2330.26000977 C106.87006354 2324.72015044 97.18235991 2319.12626045 87.52441406 2313.4765625 C77.00046235 2307.32234235 66.43750722 2301.23630981 55.87353516 2295.15112305 C50.44470917 2292.02320828 45.01811578 2288.89142529 39.59130859 2285.76000977 C37.42465277 2284.50999098 35.2579861 2283.25999098 33.09130859 2282.01000977 C-77.40869141 2218.26000977 -77.40869141 2218.26000977 -187.90869141 2154.51000977 C-189.51768311 2153.58176392 -189.51768311 2153.58176392 -191.15917969 2152.63476562 C-193.32426211 2151.38565458 -195.48930123 2150.13646847 -197.65429688 2148.88720703 C-203.09484846 2145.74798667 -208.53616356 2142.61010414 -213.97900391 2139.47485352 C-224.73739967 2133.27636057 -235.48906406 2127.06639469 -246.22119141 2120.82250977 C-247.15656738 2120.27973389 -248.09194336 2119.73695801 -249.05566406 2119.17773438 C-250.83601291 2118.14012036 -252.6038101 2117.08053805 -254.35563976 2115.99546766 C-257.38248223 2114.17798756 -257.38248223 2114.17798756 -260.74489039 2112.95669985 C-264.61595504 2111.21847282 -267.79089312 2109.66626542 -270.40869141 2106.26000977 C-272.92106558 2099.39740618 -272.1037474 2091.52335508 -271.97200012 2084.34191895 C-271.97766946 2082.05810418 -271.98905273 2079.77429764 -272.00565928 2077.49053621 C-272.03474974 2071.21385998 -271.98270906 2064.9400636 -271.91754448 2058.66375446 C-271.86720739 2052.59119732 -271.8780296 2046.51903011 -271.88740843 2040.44632434 C-271.90447913 2028.02583562 -271.86109154 2015.60624675 -271.78318214 2003.1860199 C-271.70624639 1990.88947598 -271.65622229 1978.5933069 -271.64209557 1966.29652405 C-271.64120195 1965.53181054 -271.64030834 1964.76709704 -271.63938764 1963.9792104 C-271.63498928 1960.09557761 -271.6310713 1956.2119445 -271.62733825 1952.32831103 C-271.60003659 1924.82416908 -271.51246203 1897.32051662 -271.3894043 1869.81665039 C-271.26999747 1843.09792686 -271.1779153 1816.37933731 -271.12280273 1789.66040039 C-271.12023797 1788.42490041 -271.12023797 1788.42490041 -271.1176214 1787.16444083 C-271.10048056 1778.89280202 -271.08389499 1770.62116218 -271.06771623 1762.34952143 C-271.03474592 1745.49940525 -270.99806964 1728.6492978 -270.95915222 1711.79919434 C-270.95736745 1711.02446277 -270.95558268 1710.2497312 -270.95374383 1709.45152292 C-270.83414564 1657.72081189 -270.62788875 1605.99038333 -270.40869141 1554.26000977 C-271.81722382 1553.8044294 -271.81722382 1553.8044294 -273.25421143 1553.33964539 C-276.22952175 1552.32133142 -278.63563446 1551.13130159 -281.33056641 1549.52954102 C-282.25981934 1548.98177002 -283.18907227 1548.43399902 -284.14648438 1547.86962891 C-285.1405127 1547.27657959 -286.13454102 1546.68353027 -287.15869141 1546.07250977 C-289.32236689 1544.79581198 -291.48644306 1543.51979306 -293.65087891 1542.24438477 C-294.76688477 1541.5850293 -295.88289063 1540.92567383 -297.03271484 1540.24633789 C-302.4299547 1537.07075621 -307.85633141 1533.94624417 -313.28369141 1530.82250977 C-315.46860516 1529.56342629 -317.6535009 1528.30431153 -319.83837891 1527.04516602 C-320.92344727 1526.42013184 -322.00851562 1525.79509766 -323.12646484 1525.15112305 C-328.55529083 1522.02320828 -333.98188422 1518.89142529 -339.40869141 1515.76000977 C-341.57534723 1514.50999098 -343.7420139 1513.25999098 -345.90869141 1512.01000977 C-358.90869141 1504.51000977 -371.90869141 1497.01000977 -384.90869141 1489.51000977 C-385.98135254 1488.8911792 -387.05401367 1488.27234863 -388.15917969 1487.63476562 C-390.32426211 1486.38565458 -392.48930123 1485.13646847 -394.65429688 1483.88720703 C-400.09484846 1480.74798667 -405.53616356 1477.61010414 -410.97900391 1474.47485352 C-421.4307534 1468.45253648 -431.87168689 1462.41331639 -442.28369141 1456.32250977 C-451.55433071 1450.90042278 -460.86805839 1445.55676965 -470.19915771 1440.23977661 C-479.27647776 1435.0662219 -488.31440673 1429.82858822 -497.33056641 1424.54907227 C-504.99443115 1420.06834711 -512.69554975 1415.65506752 -520.40869141 1411.26000977 C-530.12993646 1405.72015044 -539.81764009 1400.12626045 -549.47558594 1394.4765625 C-559.99953765 1388.32234235 -570.56249278 1382.23630981 -581.12646484 1376.15112305 C-586.55529083 1373.02320828 -591.98188422 1369.89142529 -597.40869141 1366.76000977 C-599.57534723 1365.50999098 -601.7420139 1364.25999098 -603.90869141 1363.01000977 C-694.90869139 1310.51000978 -694.90869139 1310.51000978 -698.16455078 1308.6315918 C-700.31164277 1307.39290974 -702.45877755 1306.15430186 -704.60595703 1304.91577148 C-709.7045795 1301.97467627 -714.80274437 1299.03279563 -719.89941406 1296.08831787 C-722.31916805 1294.69042376 -724.73916403 1293.29294888 -727.15917969 1291.89550781 C-728.87670192 1290.90348653 -730.59387192 1289.91085547 -732.31103516 1288.91821289 C-733.34357422 1288.32202148 -734.37611328 1287.72583008 -735.43994141 1287.11157227 C-736.35324219 1286.5838623 -737.26654297 1286.05615234 -738.20751953 1285.51245117 C-739.58857832 1284.72664465 -740.98747636 1283.97061729 -742.40869141 1283.26000977 C-742.40869141 1000.45000977 -742.40869141 717.64000977 -742.40869141 426.26000977 C-733.16869141 420.98000977 -723.92869141 415.70000977 -714.40869141 410.26000977 C-706.8125221 405.88316936 -699.21721122 401.505097 -691.62646484 397.11889648 C-686.22198495 393.99676372 -680.81521728 390.87859772 -675.40869141 387.76000977 C-673.2420139 386.51002855 -671.07534723 385.26002856 -668.90869141 384.01000977 C-551.90869141 316.51000977 -551.90869141 316.51000977 -548.65820312 314.63476562 C-546.4931207 313.38565458 -544.32808158 312.13646847 -542.16308594 310.88720703 C-536.72253435 307.74798667 -531.28121925 304.61010414 -525.83837891 301.47485352 C-515.38662941 295.45253648 -504.94569593 289.41331639 -494.53369141 283.32250977 C-485.26369363 277.90079799 -475.95037388 272.55796061 -466.62023926 267.24078369 C-457.49586301 262.03955848 -448.40736366 256.77973099 -439.34179688 251.4765625 C-428.81784516 245.32234235 -418.25489003 239.23630981 -407.69091797 233.15112305 C-402.26209198 230.02320828 -396.83549859 226.89142529 -391.40869141 223.76000977 C-389.24203558 222.50999098 -387.07536891 221.25999098 -384.90869141 220.01000977 C-383.83619141 219.39125977 -382.76369141 218.77250977 -381.65869141 218.13500977 C-317.74202474 181.26000977 -253.82535807 144.38500977 -189.90869141 107.51000977 C-188.83578857 106.89101807 -187.76288574 106.27202637 -186.6574707 105.63427734 C-184.49490557 104.38666237 -182.33230802 103.1391036 -180.16967773 101.89160156 C-174.68998769 98.73057527 -169.21089783 95.56851667 -163.73291016 92.40454102 C-152.9585742 86.18274138 -142.17607805 79.97628282 -131.36914062 73.8112793 C-121.13857677 67.97106556 -110.94015066 62.07518044 -100.73925781 56.18334961 C-95.29678246 53.04042183 -89.85266663 49.90033858 -84.40869141 46.76000977 C-82.24201661 45.51002386 -80.07534995 44.26002385 -77.90869141 43.01000977 C-64.90869141 35.51000977 -64.90869141 35.51000977 -61.65649414 33.63378906 C-59.49709746 32.38795207 -57.33775472 31.14202158 -55.1784668 29.89599609 C-49.65101544 26.70652024 -44.12254019 23.51884091 -38.59228516 20.33422852 C-37.47168701 19.68832764 -36.35108887 19.04242676 -35.1965332 18.37695312 C-32.9896398 17.10601539 -30.78149815 15.83724229 -28.57202148 14.57080078 C-23.72899645 11.78832092 -18.91491652 8.97981569 -14.17431641 6.02563477 C-12.99977905 5.30210815 -12.99977905 5.30210815 -11.80151367 4.56396484 C-10.38072547 3.68362038 -8.96885765 2.78862866 -7.56860352 1.87597656 C-3.02088171 -0.92806532 -3.02088171 -0.92806532 0 0 Z " fill="#2D949F" transform="translate(1773.40869140625,1006.739990234375)"/>
<path d="M0 0 C3.78518732 1.4160506 7.19749321 3.15421065 10.69921875 5.16796875 C12.36911865 6.12521851 12.36911865 6.12521851 14.07275391 7.10180664 C15.27771682 7.79695534 16.4826309 8.4921887 17.6875 9.1875 C18.94434799 9.90968618 20.20134912 10.6316059 21.45849609 11.35327148 C24.68637148 13.20743067 27.91189349 15.06563953 31.13653564 16.92541504 C33.99525204 18.57392183 36.85518454 20.22031688 39.71484375 21.8671875 C45.07278109 24.95479176 50.42792501 28.04720933 55.78222656 31.14111328 C61.18670645 34.26324605 66.59347412 37.38141204 72 40.5 C74.1666775 41.74998122 76.33334417 42.99998121 78.5 44.25 C80.10875 45.178125 80.10875 45.178125 81.75 46.125 C128.33333333 73 174.91666667 99.875 221.5 126.75 C222.57266113 127.36883057 223.64532227 127.98766113 224.75048828 128.62524414 C226.91557071 129.87435518 229.08060982 131.12354129 231.24560547 132.37280273 C236.68615706 135.51202309 242.12747216 138.64990563 247.5703125 141.78515625 C258.02206199 147.80747329 268.46299548 153.84669337 278.875 159.9375 C288.14563931 165.35958699 297.45936699 170.70324012 306.79046631 176.02023315 C315.86778636 181.19378787 324.90571533 186.43142154 333.921875 191.7109375 C341.58573974 196.19166265 349.28685835 200.60494224 357 205 C366.72124506 210.53985933 376.40894868 216.13374932 386.06689453 221.78344727 C393.32211716 226.02617267 400.59352496 230.23999497 407.875 234.4375 C408.95394531 235.05947266 410.03289063 235.68144531 411.14453125 236.32226562 C414.42942992 238.21529126 417.71465103 240.10775598 421 242 C424.28731799 243.8933781 427.57450689 245.78697671 430.86108398 247.68164062 C433.02128105 248.92647256 435.1822406 250.16998235 437.34399414 251.41210938 C442.85363875 254.58324856 448.33866615 257.78915385 453.79296875 261.0546875 C454.88786621 261.70622803 455.98276367 262.35776855 457.11083984 263.02905273 C459.1960732 264.27201973 461.2761337 265.52371953 463.35009766 266.78540039 C464.28257324 267.3396167 465.21504883 267.89383301 466.17578125 268.46484375 C466.98958252 268.955896 467.80338379 269.44694824 468.6418457 269.95288086 C471.39123682 271.17372551 473.02051848 271.37767256 476 271 C478.42869057 269.98023658 478.42869057 269.98023658 480.82421875 268.46484375 C481.75669434 267.91062744 482.68916992 267.35641113 483.64990234 266.78540039 C484.65230957 266.17559326 485.6547168 265.56578613 486.6875 264.9375 C488.86018566 263.64240439 491.03338004 262.34816191 493.20703125 261.0546875 C494.32932129 260.38276367 495.45161133 259.71083984 496.60791016 259.01855469 C501.99826661 255.81087748 507.43617131 252.68704779 512.875 249.5625 C519.09036151 245.98646101 525.30480559 242.40923825 531.49978638 238.79798889 C533.91612255 237.38971716 536.33425405 235.98454427 538.75250244 234.57955933 C540.4706998 233.57955298 542.18630219 232.57509225 543.90185547 231.57055664 C544.93455566 230.97106201 545.96725586 230.37156738 547.03125 229.75390625 C548.40120117 228.95448608 548.40120117 228.95448608 549.79882812 228.13891602 C552 227 552 227 554 227 C554 337.22 554 447.44 554 561 C550.37 562.98 546.74 564.96 543 567 C531.11404832 573.56253439 519.26103472 580.18441582 507.58325195 587.11157227 C501.2716483 590.85347839 494.92007734 594.52432671 488.5625 598.1875 C487.45527588 598.82550537 486.34805176 599.46351074 485.20727539 600.12084961 C482.93662932 601.42889477 480.66587642 602.73675448 478.39501953 604.04443359 C472.9283002 607.19332054 467.46425113 610.34683264 462 613.5 C459.83334689 614.7500235 457.66668021 616.00002347 455.5 617.25 C453.89125 618.178125 453.89125 618.178125 452.25 619.125 C390.50000001 654.75 390.50000001 654.75 387.24951172 656.62524414 C385.08442929 657.87435518 382.91939018 659.12354129 380.75439453 660.37280273 C375.31384294 663.51202309 369.87252784 666.64990563 364.4296875 669.78515625 C353.97793801 675.80747329 343.53700452 681.84669337 333.125 687.9375 C323.85500223 693.35921178 314.54168248 698.70204915 305.21154785 704.01922607 C296.0871716 709.22045129 286.99867226 714.48027878 277.93310547 719.78344727 C267.40915375 725.93766742 256.84619863 732.02369996 246.28222656 738.10888672 C240.85340058 741.23680148 235.42680719 744.36858448 230 747.5 C227.83334417 748.75001879 225.6666775 750.00001878 223.5 751.25 C221.89125 752.178125 221.89125 752.178125 220.25 753.125 C165 785 109.75 816.875 54.5 848.75 C53.42596924 849.36963623 52.35193848 849.98927246 51.24536133 850.62768555 C49.09416776 851.86875254 46.94296345 853.10980093 44.79174805 854.35083008 C39.74037001 857.26498344 34.6890969 860.17931818 29.63821411 863.09432983 C27.84933082 864.12673478 26.06041283 865.15907956 24.27148438 866.19140625 C22.02662364 867.48685948 19.7818281 868.7824257 17.53710938 870.078125 C15.55317466 871.22294465 13.56655325 872.36312725 11.57666016 873.49755859 C9.99164486 874.4217754 8.42366473 875.37698323 6.88818359 876.38134766 C5.07421875 877.55078125 5.07421875 877.55078125 2 879 C-1.61408952 877.87798847 -4.8211826 876.08032029 -8.11328125 874.234375 C-9.59526001 873.40498413 -9.59526001 873.40498413 -11.10717773 872.55883789 C-12.16493408 871.96192139 -13.22269043 871.36500488 -14.3125 870.75 C-15.97551147 869.81498657 -15.97551147 869.81498657 -17.67211914 868.86108398 C-27.13940877 863.52126695 -36.53299965 858.05876975 -45.91015625 852.5625 C-52.21570419 848.8678669 -58.54294436 845.21147319 -64.875 841.5625 C-65.95515381 840.93996338 -67.03530762 840.31742676 -68.14819336 839.67602539 C-70.33796334 838.41423174 -72.52782355 837.15259466 -74.71777344 835.89111328 C-80.14659942 832.76319852 -85.57319281 829.63141552 -91 826.5 C-93.16665583 825.24998121 -95.3333225 823.99998122 -97.5 822.75 C-145.16666667 795.25 -192.83333333 767.75 -240.5 740.25 C-241.57266113 739.63116943 -242.64532227 739.01233887 -243.75048828 738.37475586 C-245.91557071 737.12564482 -248.08060982 735.87645871 -250.24560547 734.62719727 C-255.68615706 731.48797691 -261.12747216 728.35009437 -266.5703125 725.21484375 C-277.02206199 719.19252671 -287.46299548 713.15330663 -297.875 707.0625 C-306.55262241 701.98724877 -315.26605568 696.97741233 -324 692 C-333.72115617 686.4599827 -343.40894658 680.86625191 -353.06689453 675.21655273 C-363.59084625 669.06233258 -374.15380137 662.97630004 -384.71777344 656.89111328 C-390.14659942 653.76319852 -395.57319281 650.63141552 -401 647.5 C-403.16665583 646.24998121 -405.3333225 644.99998122 -407.5 643.75 C-498.50000004 591.24999998 -498.50000004 591.24999998 -501.75463867 589.37231445 C-503.90583224 588.13124746 -506.05703655 586.89019907 -508.20825195 585.64916992 C-513.25962999 582.73501656 -518.3109031 579.82068182 -523.36178589 576.90567017 C-525.15066918 575.87326522 -526.93958717 574.84092044 -528.72851562 573.80859375 C-530.97337636 572.51314052 -533.2181719 571.2175743 -535.46289062 569.921875 C-536.47931641 569.33535156 -537.49574219 568.74882812 -538.54296875 568.14453125 C-539.8736438 567.37653198 -539.8736438 567.37653198 -541.23120117 566.59301758 C-544.48352348 564.72180666 -547.74217509 562.86161423 -551 561 C-551 450.78 -551 340.56 -551 227 C-539.76190476 232.61904762 -539.76190476 232.61904762 -535.7578125 234.98828125 C-534.85087646 235.52171143 -533.94394043 236.0551416 -533.00952148 236.60473633 C-532.05762939 237.16829834 -531.1057373 237.73186035 -530.125 238.3125 C-523.34980262 242.29655775 -516.56646682 246.2637079 -509.73828125 250.15625 C-509.13358505 250.50101379 -508.52888885 250.84577759 -507.90586853 251.20098877 C-504.88593266 252.92134091 -501.86377412 254.63769696 -498.83959961 256.35058594 C-493.88394417 259.16345873 -488.94850927 261.98581415 -484.140625 265.046875 C-483.45427979 265.48088623 -482.76793457 265.91489746 -482.06079102 266.36206055 C-480.35608882 267.45446518 -478.66731958 268.57163317 -476.98046875 269.69140625 C-473.19657936 271.35274694 -470.7959267 271.3766334 -467 270 C-462.93154213 268.00612739 -459.07011201 265.70641938 -455.1875 263.375 C-454.03522395 262.6947446 -452.88221411 262.0157308 -451.72851562 261.33789062 C-449.33486256 259.93023797 -446.94443892 258.51732301 -444.55615234 257.10058594 C-439.06653778 253.8501489 -433.53093453 250.67941401 -428 247.5 C-425.83311897 246.25037163 -423.6664529 245.00037046 -421.5 243.75 C-304.5 176.25 -304.5 176.25 -301.24951172 174.37475586 C-299.08442929 173.12564482 -296.91939018 171.87645871 -294.75439453 170.62719727 C-289.31384294 167.48797691 -283.87252784 164.35009437 -278.4296875 161.21484375 C-267.97793801 155.19252671 -257.53700452 149.15330663 -247.125 143.0625 C-237.85436069 137.64041301 -228.54063301 132.29675988 -219.20953369 126.97976685 C-211.11292157 122.36515971 -203.04211199 117.70915114 -195 113 C-186.36502443 107.94369077 -177.69393681 102.95392878 -169 98 C-159.27875494 92.46014067 -149.59105132 86.86625068 -139.93310547 81.21655273 C-129.40915375 75.06233258 -118.84619863 68.97630004 -108.28222656 62.89111328 C-102.85340058 59.76319852 -97.42680719 56.63141552 -92 53.5 C-89.83334417 52.24998121 -87.6666775 50.99998122 -85.5 49.75 C-84.4275 49.13125 -83.355 48.5125 -82.25 47.875 C-46.5 27.25 -46.5 27.25 -43.24389648 25.37158203 C-41.09745541 24.13318229 -38.95113196 22.89457865 -36.80493164 21.65576172 C-31.69997994 18.70944644 -26.59379033 15.76533542 -21.48348999 12.82830811 C-19.05339448 11.43150193 -16.62396065 10.03354722 -14.19458008 8.63549805 C-12.46695585 7.64194008 -10.7383688 6.65005691 -9.00976562 5.65820312 C-7.97400391 5.06201172 -6.93824219 4.46582031 -5.87109375 3.8515625 C-4.49328735 3.05999756 -4.49328735 3.05999756 -3.08764648 2.25244141 C-1.08479141 1.1656533 -1.08479141 1.1656533 0 0 Z " fill="#000000" transform="translate(2243,2444)"/>
<path d="M0 0 C1.93527142 0.95454667 3.8329214 1.98709091 5.69921875 3.0703125 C7.36911865 4.03239624 7.36911865 4.03239624 9.07275391 5.01391602 C10.27773761 5.71749364 11.48265113 6.4211915 12.6875 7.125 C13.94411816 7.85213915 15.20112306 8.57861033 16.45849609 9.30444336 C19.04627864 10.7996765 21.63175689 12.2987785 24.21533203 13.80126953 C28.78153198 16.45609767 33.3593331 19.09067624 37.93676758 21.72607422 C42.22090654 24.19374351 46.50148784 26.66755173 50.78222656 29.14111328 C55.10247643 31.63689344 59.42422987 34.13006297 63.74609375 36.62304688 C66.99496496 38.49709563 70.24357632 40.37159428 73.4921875 42.24609375 C77.85065388 44.76069436 82.21012191 47.27354661 86.5703125 49.78515625 C97.02206199 55.80747329 107.46299548 61.84669337 117.875 67.9375 C126.55262241 73.01275123 135.26605568 78.02258767 144 83 C153.72115617 88.5400173 163.40894658 94.13374809 173.06689453 99.78344727 C183.59084625 105.93766742 194.15380137 112.02369996 204.71777344 118.10888672 C210.14659942 121.23680148 215.57319281 124.36858448 221 127.5 C223.16665583 128.75001879 225.3333225 130.00001878 227.5 131.25 C283.83333333 163.75 340.16666667 196.25 396.5 228.75 C397.57266113 229.36883057 398.64532227 229.98766113 399.75048828 230.62524414 C401.91557071 231.87435518 404.08060982 233.12354129 406.24560547 234.37280273 C411.68615706 237.51202309 417.12747216 240.64990563 422.5703125 243.78515625 C433.02206199 249.80747329 443.46299548 255.84669337 453.875 261.9375 C462.55262241 267.01275123 471.26605568 272.02258767 480 277 C489.70575803 282.53124201 499.37900185 288.11477442 509.02075195 293.75708008 C517.83787266 298.91462642 526.68428463 304.02040396 535.53759766 309.11547852 C536.57062012 309.71030029 537.60364258 310.30512207 538.66796875 310.91796875 C539.57828857 311.44156982 540.4886084 311.9651709 541.42651367 312.50463867 C542.27576416 312.99810791 543.12501465 313.49157715 544 314 C544.86538885 314.31240106 545.7307777 314.62480212 546.62239045 314.94666988 C549 317 549 317 549.45945642 318.99585166 C549.6419678 321.79113291 549.65140746 324.54744923 549.61523914 327.3486433 C549.62100836 328.43097562 549.62677759 329.51330794 549.63272163 330.6284382 C549.64606455 334.29256063 549.62343702 337.95560698 549.60127258 341.61967468 C549.60345089 344.2580399 549.60761321 346.89633364 549.61421841 349.53468448 C549.62460458 355.29005384 549.61633899 361.04516523 549.59602737 366.80050468 C549.5659084 375.35848864 549.56434307 383.91630922 549.56873732 392.47433651 C549.57531419 406.86873527 549.55857195 421.26301946 549.52865028 435.65738487 C549.49908957 449.9145737 549.4798255 464.17171484 549.47438622 478.4289341 C549.47404252 479.31460347 549.47369882 480.20027284 549.47334471 481.11278068 C549.4716531 485.61044246 549.47014616 490.10810429 549.46871033 494.60576615 C549.45820152 526.48273403 549.42449593 558.35963954 549.37719727 590.23657227 C549.33129332 621.20922514 549.29586634 652.18186095 549.2746582 683.15454102 C549.27400057 684.10884816 549.27334294 685.06315531 549.27266538 686.04638086 C549.26607292 695.62971443 549.25969383 705.21304812 549.25347109 714.79638194 C549.2407892 734.31964392 549.22668293 753.8429048 549.2117157 773.36616516 C549.21102925 774.26386071 549.2103428 775.16155627 549.20963555 776.08645471 C549.16361346 836.05766244 549.08438528 896.02883548 549 956 C548.22053009 956.44508408 547.44106018 956.89016815 546.63796997 957.34873962 C543.67789401 959.03913083 540.71794968 960.72975208 537.75808716 962.42051697 C536.48978658 963.14495056 535.22143725 963.8692988 533.95303345 964.59355164 C522.02343983 971.40543418 510.12091311 978.26346262 498.2265625 985.13671875 C494.96475993 987.0203505 491.70138156 988.90122321 488.4375 990.78125 C477.98287049 996.80439739 467.53951558 1002.84522445 457.125 1008.9375 C447.85500223 1014.35921178 438.54168248 1019.70204915 429.21154785 1025.01922607 C420.0871716 1030.22045129 410.99867226 1035.48027878 401.93310547 1040.78344727 C391.40915375 1046.93766742 380.84619863 1053.02369996 370.28222656 1059.10888672 C364.85340058 1062.23680148 359.42680719 1065.36858448 354 1068.5 C351.83334417 1069.75001879 349.6666775 1071.00001878 347.5 1072.25 C346.4275 1072.86875 345.355 1073.4875 344.25 1074.125 C334.5 1079.75 334.5 1079.75 331.24902344 1081.62548828 C329.08552524 1082.87371034 326.92211357 1084.12208239 324.75878906 1085.37060547 C319.29434983 1088.52405256 313.82836355 1091.67476096 308.359375 1094.8203125 C306.15616335 1096.08839113 303.95303763 1097.35661906 301.75 1098.625 C300.68458984 1099.23802979 299.61917969 1099.85105957 298.52148438 1100.48266602 C293.17600591 1103.565307 287.84820041 1106.67398363 282.546875 1109.83203125 C281.52754883 1110.43901855 280.50822266 1111.04600586 279.45800781 1111.67138672 C277.52780456 1112.82383722 275.59995149 1113.98023579 273.67480469 1115.14111328 C272.82305664 1115.65013184 271.97130859 1116.15915039 271.09375 1116.68359375 C270.34802734 1117.13275146 269.60230469 1117.58190918 268.83398438 1118.04467773 C267 1119 267 1119 265 1119 C265.0611499 1117.43051102 265.0611499 1117.43051102 265.12353516 1115.82931519 C265.4937811 1105.91577953 265.73457668 1096.006185 265.8523407 1086.08634758 C265.91695193 1080.9863351 266.02528166 1075.89547929 266.23779297 1070.79931641 C268.08734073 1049.43834356 268.08734073 1049.43834356 261.75286865 1029.85287476 C256.17852886 1024.92621748 249.88236216 1022.29049311 242.87536621 1019.98608398 C239.15570346 1018.71045521 236.20320063 1016.97424646 232.8828125 1014.87890625 C230.96389348 1013.77282692 229.04463128 1012.66734273 227.125 1011.5625 C224.94009462 1010.30340198 222.75519908 1009.04428689 220.5703125 1007.78515625 C219.48524414 1007.16012207 218.40017578 1006.53508789 217.28222656 1005.89111328 C211.85340058 1002.76319852 206.42680719 999.63141552 201 996.5 C198.83334417 995.24998121 196.6666775 993.99998122 194.5 992.75 C181.5 985.25 168.5 977.75 155.5 970.25 C154.42733887 969.63116943 153.35467773 969.01233887 152.24951172 968.37475586 C150.08442929 967.12564482 147.91939018 965.87645871 145.75439453 964.62719727 C140.31384294 961.48797691 134.87252784 958.35009437 129.4296875 955.21484375 C118.97793801 949.19252671 108.53700452 943.15330663 98.125 937.0625 C89.44737759 931.98724877 80.73394432 926.97741233 72 922 C62.27884383 916.4599827 52.59105342 910.86625191 42.93310547 905.21655273 C32.40915375 899.06233258 21.84619863 892.97630004 11.28222656 886.89111328 C5.85340058 883.76319852 0.42680719 880.63141552 -5 877.5 C-7.16665583 876.24998121 -9.3333225 874.99998122 -11.5 873.75 C-59.16666667 846.25 -106.83333333 818.75 -154.5 791.25 C-155.5739502 790.63044434 -156.64790039 790.01088867 -157.75439453 789.37255859 C-159.9065213 788.13088473 -162.05854073 786.88902478 -164.21044922 785.64697266 C-169.25030977 782.73833177 -174.29117492 779.83148102 -179.33599854 776.93145752 C-181.11749578 775.90724335 -182.89864322 774.88242349 -184.6796875 773.85742188 C-186.91076625 772.57366625 -189.14249573 771.29104061 -191.375 770.00976562 C-192.38820313 769.42646484 -193.40140625 768.84316406 -194.4453125 768.2421875 C-195.32719238 767.7354248 -196.20907227 767.22866211 -197.11767578 766.70654297 C-198.06884277 766.14338379 -199.02000977 765.58022461 -200 765 C-200.65896702 764.69121884 -201.31793405 764.38243768 -201.99686977 764.06429951 C-207.54209413 761.20588329 -207.54209413 761.20588329 -208.73995548 758.05134632 C-209.02205698 755.59130599 -209.04401944 753.23973743 -208.98438263 750.76397228 C-208.99361338 749.82622079 -209.00284414 748.88846929 -209.01235461 747.92230108 C-209.03363144 744.76129612 -208.99757019 741.60351304 -208.96203613 738.44267273 C-208.96552298 736.16145987 -208.97252438 733.88025011 -208.98274946 731.5990575 C-209.00068788 725.31627761 -208.96857076 719.03458307 -208.92852497 712.75194156 C-208.89759589 706.67711574 -208.90420399 700.60243883 -208.90997971 694.52755697 C-208.92049467 682.09929173 -208.893746 669.67136656 -208.84584045 657.2432003 C-208.79852202 644.93583177 -208.76771655 632.62860484 -208.75901794 620.32114601 C-208.75846803 619.55622629 -208.75791811 618.79130656 -208.75735153 618.00320745 C-208.7546449 614.11864758 -208.75223382 610.23408759 -208.74993652 606.34952746 C-208.73312827 578.82724152 -208.67921573 551.30514065 -208.60351562 523.78295898 C-208.53005382 497.04371119 -208.47337829 470.30451402 -208.43945312 443.56518555 C-208.43840092 442.74112431 -208.43734871 441.91706308 -208.43626461 441.0680303 C-208.42571655 432.79255201 -208.41551003 424.51707334 -208.40555374 416.24159432 C-208.38526343 399.3831315 -208.36269341 382.52467199 -208.33874512 365.66621399 C-208.3376468 364.89107055 -208.33654848 364.11592712 -208.33541688 363.31729449 C-208.2617978 311.54478485 -208.13486833 259.77238203 -208 208 C-209.16640266 207.54207062 -209.16640266 207.54207062 -210.35636902 207.07489014 C-212.93166765 206.02778367 -215.25926469 204.82378292 -217.67578125 203.453125 C-218.57337158 202.94539551 -219.47096191 202.43766602 -220.39575195 201.91455078 C-221.35827881 201.36524902 -222.32080566 200.81594727 -223.3125 200.25 C-224.32723389 199.67362793 -225.34196777 199.09725586 -226.38745117 198.50341797 C-235.54412657 193.288936 -244.64453925 187.97945231 -253.73828125 182.65625 C-260.64274229 178.61785432 -267.56988342 174.61914454 -274.5 170.625 C-275.37212631 170.12229584 -275.37212631 170.12229584 -276.26187134 169.60943604 C-279.5074513 167.73881973 -282.75350445 165.86902677 -286 164 C-286 163.01 -286 162.02 -286 161 C-285.14341797 160.51926025 -285.14341797 160.51926025 -284.26953125 160.02880859 C-272.18625718 153.24037143 -260.15439352 146.37311092 -248.19287109 139.37231445 C-237.58353211 133.16403197 -226.93371497 127.02671226 -216.28222656 120.89111328 C-210.85340058 117.76319852 -205.42680719 114.63141552 -200 111.5 C-197.83334417 110.24998121 -195.6666775 108.99998122 -193.5 107.75 C-192.4275 107.13125 -191.355 106.5125 -190.25 105.875 C-143.66666667 79 -97.08333333 52.125 -50.5 25.25 C-49.42580811 24.62996094 -48.35161621 24.00992187 -47.24487305 23.37109375 C-45.09639154 22.13221313 -42.94682816 20.89520666 -40.79614258 19.66015625 C-35.70514784 16.73355935 -30.62752266 13.78873722 -25.5866394 10.7767334 C-23.20019442 9.35234513 -20.80753319 7.93859147 -18.41430664 6.52563477 C-16.72380162 5.52156131 -15.04243962 4.50214482 -13.36132812 3.48242188 C-12.33845703 2.87978516 -11.31558594 2.27714844 -10.26171875 1.65625 C-9.36412842 1.11806641 -8.46653809 0.57988281 -7.54174805 0.02539062 C-4.42447272 -1.23217891 -3.16067104 -1.07289394 0 0 Z " fill="#000000" transform="translate(2720,1225)"/>
<path d="M0 0 C1.81952641 0.87018594 3.60485887 1.81382088 5.359375 2.80859375 C6.89549438 3.6737561 6.89549438 3.6737561 8.46264648 4.55639648 C9.54747314 5.17716064 10.6322998 5.7979248 11.75 6.4375 C12.87672119 7.0756665 14.00344238 7.71383301 15.16430664 8.37133789 C22.64203591 12.61845736 30.07214578 16.94169511 37.46875 21.328125 C43.09867855 24.66001908 48.7691917 27.92147673 54.4375 31.1875 C56.09833618 32.14450806 56.09833618 32.14450806 57.79272461 33.12084961 C60.06337068 34.42889477 62.33412358 35.73675448 64.60498047 37.04443359 C70.0716998 40.19332054 75.53574887 43.34683264 81 46.5 C83.16665311 47.7500235 85.33331979 49.00002347 87.5 50.25 C91.83333333 52.75 96.16666667 55.25 100.5 57.75 C102.1089917 58.67824585 102.1089917 58.67824585 103.75048828 59.62524414 C105.91557071 60.87435518 108.08060982 62.12354129 110.24560547 63.37280273 C115.68615706 66.51202309 121.12747216 69.64990563 126.5703125 72.78515625 C137.02206199 78.80747329 147.46299548 84.84669337 157.875 90.9375 C166.55262241 96.01275123 175.26605568 101.02258767 184 106 C193.72115617 111.5400173 203.40894658 117.13374809 213.06689453 122.78344727 C220.32211819 127.02617327 227.59361304 131.23984085 234.875 135.4375 C236.47384033 136.35958252 236.47384033 136.35958252 238.10498047 137.30029297 C243.19979755 140.23734123 248.29645503 143.1711414 253.39663696 146.09886169 C255.77597172 147.46506514 258.15442282 148.83280256 260.53277588 150.20071411 C262.2044039 151.16129865 263.87733079 152.11962178 265.55029297 153.07788086 C270.47582774 155.91109453 275.33247939 158.75687792 280 162 C277.07370751 165.17440814 274.15654511 167.2534503 270.3984375 169.36328125 C269.28138428 169.99532471 268.16433105 170.62736816 267.01342773 171.27856445 C265.80062679 171.95655781 264.58781732 172.63453594 263.375 173.3125 C262.11814044 174.02161703 260.86171751 174.73150846 259.60571289 175.44213867 C257.66678833 176.53902497 255.72760537 177.63542323 253.7870636 178.72944641 C247.31195681 182.38031793 240.87265984 186.09164647 234.4375 189.8125 C233.3738623 190.42593262 232.31022461 191.03936523 231.21435547 191.67138672 C226.2080478 194.55990928 221.20865675 197.45936308 216.22265625 200.3828125 C215.33586182 200.90125732 214.44906738 201.41970215 213.53540039 201.95385742 C211.89046508 202.91642573 210.24759059 203.88252779 208.60717773 204.8527832 C203.22328636 208 203.22328636 208 201 208 C201.00645525 209.16421805 201.01291049 210.3284361 201.01956135 211.52793348 C201.30293418 262.83657943 201.56520623 314.14528681 201.71983337 365.45449829 C201.72218034 366.23129284 201.72452731 367.0080874 201.7269454 367.80842118 C201.77782483 384.69025744 201.82491792 401.57210227 201.8681106 418.4539599 C201.88931532 426.73281762 201.91135674 435.01167301 201.93383789 443.29052734 C201.93717225 444.52629571 201.93717225 444.52629571 201.94057396 445.78702909 C202.01301745 472.49045743 202.14070892 499.19327425 202.29705275 525.89633211 C202.45742481 553.33723981 202.56205628 580.7778091 202.59655483 608.21917751 C202.60145346 612.09503914 202.60698929 615.97089961 202.61291313 619.8467598 C202.61405932 620.60958463 202.61520551 621.37240947 202.61638644 622.15835021 C202.63647625 634.43810231 202.71532156 646.71680802 202.81614458 658.99613338 C202.91625338 671.34120776 202.9544508 683.68524492 202.92952342 696.03071098 C202.91772982 702.72064467 202.93552144 709.40713741 203.02649307 716.09671783 C203.10917421 722.22130717 203.11345702 728.34076056 203.05528121 734.46558543 C203.04809162 736.68119526 203.06972562 738.89712424 203.1230141 741.11210482 C203.48856909 757.24428326 203.48856909 757.24428326 199.33788054 761.84054783 C195.28166769 765.05374247 190.85332577 767.18047034 186.08005624 769.11842509 C183.06386252 770.39675625 180.36565035 772.03203757 177.56640625 773.73046875 C175.56553379 774.88355831 173.56422606 776.03589289 171.5625 777.1875 C169.31379049 778.4830528 167.06509292 779.77862632 164.81640625 781.07421875 C163.68734863 781.72438965 162.55829102 782.37456055 161.39501953 783.04443359 C155.9283002 786.19332054 150.46425113 789.34683264 145 792.5 C142.83334689 793.7500235 140.66668021 795.00002347 138.5 796.25 C136.89125 797.178125 136.89125 797.178125 135.25 798.125 C73.49999999 833.75 73.49999999 833.75 70.24951172 835.62524414 C68.08442929 836.87435518 65.91939018 838.12354129 63.75439453 839.37280273 C58.31384294 842.51202309 52.87252784 845.64990563 47.4296875 848.78515625 C36.97793801 854.80747329 26.53700452 860.84669337 16.125 866.9375 C6.85436069 872.35958699 -2.45936699 877.70324012 -11.79046631 883.02023315 C-19.88707843 887.63484029 -27.95788801 892.29084886 -36 897 C-44.63497557 902.05630923 -53.30606319 907.04607122 -62 912 C-71.72124506 917.53985933 -81.40894868 923.13374932 -91.06689453 928.78344727 C-101.59084625 934.93766742 -112.15380137 941.02369996 -122.71777344 947.10888672 C-128.14659942 950.23680148 -133.57319281 953.36858448 -139 956.5 C-141.16665583 957.75001879 -143.3333225 959.00001878 -145.5 960.25 C-147.10875 961.178125 -147.10875 961.178125 -148.75 962.125 C-169.33333333 974 -189.91666667 985.875 -210.5 997.75 C-211.5734668 998.36931396 -212.64693359 998.98862793 -213.75292969 999.62670898 C-215.90980903 1000.87104998 -218.06670992 1002.11535364 -220.22363281 1003.35961914 C-226.93824771 1007.2331621 -233.65199026 1011.10821291 -240.36523438 1014.98413086 C-243.64375579 1016.87618581 -246.92332407 1018.76641412 -250.203125 1020.65625 C-253.69709652 1022.66964826 -257.18740302 1024.68896049 -260.671875 1026.71875 C-261.9479087 1027.45834707 -263.22394954 1028.19793184 -264.5 1028.9375 C-266.06234375 1029.84822266 -266.06234375 1029.84822266 -267.65625 1030.77734375 C-270 1032 -270 1032 -272 1032 C-272 1060.38 -272 1088.76 -272 1118 C-276.38578387 1116.90355403 -279.85662369 1115.01643521 -283.75 1112.8125 C-284.9265918 1112.15254028 -284.9265918 1112.15254028 -286.12695312 1111.47924805 C-294.69498363 1106.65016092 -303.17743241 1101.67331345 -311.6640625 1096.703125 C-318.05281992 1092.96365411 -324.46116076 1089.25874966 -330.875 1085.5625 C-331.95458984 1084.94028564 -333.03417969 1084.31807129 -334.14648438 1083.67700195 C-336.3368252 1082.41488483 -338.52725502 1081.15292215 -340.71777344 1079.89111328 C-346.14659942 1076.76319852 -351.57319281 1073.63141552 -357 1070.5 C-359.16665583 1069.24998121 -361.3333225 1067.99998122 -363.5 1066.75 C-402.5 1044.25 -441.5 1021.75 -480.5 999.25 C-481.57266113 998.63116943 -482.64532227 998.01233887 -483.75048828 997.37475586 C-485.91557071 996.12564482 -488.08060982 994.87645871 -490.24560547 993.62719727 C-495.68615706 990.48797691 -501.12747216 987.35009437 -506.5703125 984.21484375 C-517.49887858 977.91798924 -528.41747007 971.6047418 -539.3125 965.25 C-540.81611084 964.37299438 -540.81611084 964.37299438 -542.35009766 963.47827148 C-547.57628381 960.42627631 -547.57628381 960.42627631 -550 959 C-550.85996822 958.68924343 -551.71993644 958.37848686 -552.6059643 958.05831343 C-555 956 -555 956 -555.46851842 954.00856357 C-555.66285421 951.22184334 -555.68551523 948.47287934 -555.66272545 945.67928982 C-555.67358781 944.59995347 -555.68445017 943.52061711 -555.6956417 942.4085736 C-555.72616677 938.754654 -555.72073157 935.10164817 -555.71566772 931.44761658 C-555.73000828 928.81636976 -555.74630371 926.18520058 -555.76496089 923.55398756 C-555.80641028 917.05711615 -555.82078172 910.56043613 -555.82698598 904.06344647 C-555.83564176 896.28450006 -555.87302595 888.50575886 -555.91085502 880.7269092 C-556.00079392 861.92279375 -556.0393829 843.11867477 -556.07136048 824.31438713 C-556.08677385 815.42080831 -556.10802589 806.5272462 -556.12981567 797.63368108 C-556.20411049 767.19780213 -556.2662596 736.76192741 -556.29146385 706.32596493 C-556.29307827 704.41466936 -556.2946954 702.5033738 -556.29631523 700.59207824 C-556.29711544 699.64423418 -556.29791566 698.69639013 -556.29874012 697.71982352 C-556.30279929 692.91746369 -556.30689784 688.1151039 -556.31103516 683.31274414 C-556.31184363 682.35969591 -556.3126521 681.40664768 -556.31348507 680.4247192 C-556.34016446 649.5216698 -556.434787 618.61934504 -556.56971814 587.71659135 C-556.71207008 555.05467124 -556.79268201 522.39316996 -556.80285609 489.7309323 C-556.80420556 486.14604114 -556.80581097 482.56115019 -556.80760574 478.97625923 C-556.80801943 478.09353981 -556.80843312 477.21082038 -556.80885935 476.30135188 C-556.81697928 462.08877927 -556.88139414 447.87699378 -556.9659506 433.6646941 C-557.04952228 419.38085825 -557.07024953 405.09800187 -557.0270894 390.81397759 C-557.00326953 382.32540967 -557.02669711 373.84004684 -557.11787426 365.35191852 C-557.17410095 359.68108673 -557.16850057 354.01248373 -557.11276166 348.34165292 C-557.0827376 345.10885846 -557.08878011 341.88343516 -557.151408 338.65092861 C-557.49092023 319.95818326 -557.49092023 319.95818326 -553.3364878 315.02443536 C-549.31837647 311.71446222 -544.92228722 309.65747582 -540.0795141 307.82868034 C-537.02936815 306.61320602 -534.36590351 304.98061177 -531.56640625 303.26953125 C-529.56553379 302.11644169 -527.56422606 300.96410711 -525.5625 299.8125 C-523.31379049 298.5169472 -521.06509292 297.22137368 -518.81640625 295.92578125 C-517.68734863 295.27561035 -516.55829102 294.62543945 -515.39501953 293.95556641 C-509.9283002 290.80667946 -504.46425113 287.65316736 -499 284.5 C-496.83334689 283.2499765 -494.66668021 281.99997653 -492.5 280.75 C-491.4275 280.13125 -490.355 279.5125 -489.25 278.875 C-453.5 258.25 -453.5 258.25 -450.24951172 256.37475586 C-448.08442929 255.12564482 -445.91939018 253.87645871 -443.75439453 252.62719727 C-438.31384294 249.48797691 -432.87252784 246.35009437 -427.4296875 243.21484375 C-416.97793801 237.19252671 -406.53700452 231.15330663 -396.125 225.0625 C-386.85500223 219.64078822 -377.54168248 214.29795085 -368.21154785 208.98077393 C-359.0871716 203.77954871 -349.99867226 198.51972122 -340.93310547 193.21655273 C-330.40915375 187.06233258 -319.84619863 180.97630004 -309.28222656 174.89111328 C-303.85340058 171.76319852 -298.42680719 168.63141552 -293 165.5 C-290.83334417 164.24998121 -288.6666775 162.99998122 -286.5 161.75 C-285.4275 161.13125 -284.355 160.5125 -283.25 159.875 C-117.5 64.25 -117.5 64.25 -114.24951172 62.37475586 C-112.08442929 61.12564482 -109.91939018 59.87645871 -107.75439453 58.62719727 C-102.31384294 55.48797691 -96.87252784 52.35009437 -91.4296875 49.21484375 C-79.99875018 42.62831691 -68.58600337 36.01273409 -57.19897461 29.35058594 C-51.74810676 26.16766286 -46.28372464 23.01005479 -40.80078125 19.8828125 C-40.19204666 19.53558136 -39.58331207 19.18835022 -38.95613098 18.83059692 C-35.91931107 17.09942599 -32.88072384 15.37143181 -29.84008789 13.64697266 C-24.86979636 10.82028313 -19.91691397 7.9881228 -15.0703125 4.953125 C-14.37494385 4.51911377 -13.6795752 4.08510254 -12.96313477 3.63793945 C-11.22821502 2.54216548 -9.50596297 1.42640026 -7.78515625 0.30859375 C-4.44193996 -1.26220212 -3.48554054 -0.99203108 0 0 Z " fill="#000000" transform="translate(1775,1225)"/>
<path d="M0 0 C2.83886719 1.34423828 2.83886719 1.34423828 5.796875 3.0703125 C7.46242432 4.03263794 7.46242432 4.03263794 9.16162109 5.0144043 C10.35784376 5.71777234 11.55396753 6.4213086 12.75 7.125 C13.9990047 7.85088939 15.24852496 8.57589232 16.49853516 9.30004883 C19.07296203 10.79302891 21.64448532 12.29083554 24.21386719 13.79248047 C27.75086835 15.85785219 31.29920599 17.90255011 34.8515625 19.94140625 C46.95042751 26.8887598 46.95042751 26.8887598 50.05141258 28.81438923 C53.06702787 30.59529742 56.12599575 31.85089526 59.39379311 33.10344982 C66.61159469 36.15494234 74.1285789 39.44642954 77.26262999 47.0722506 C79.14705403 55.85181698 78.81543506 64.82127606 78.55344367 73.74621165 C78.45782043 77.83528166 78.49062813 81.92365997 78.5072937 86.01353455 C78.51879357 93.08753786 78.45018597 100.15705472 78.32606125 107.22992897 C78.14673294 117.45510778 78.08991965 127.67813239 78.06232543 137.90471312 C78.01425498 154.49800625 77.86807389 171.08891093 77.65966797 187.6809082 C77.45751645 203.79178979 77.30189958 219.9020211 77.20849609 236.01391602 C77.20271618 237.00815713 77.19693626 238.00239825 77.19098119 239.02676789 C77.16226895 244.01492536 77.13446771 249.00308742 77.10711932 253.99125254 C76.87930051 295.32916264 76.49203783 336.66444426 76 378 C74.11380732 377.06691809 72.22878366 376.13147286 70.34423828 375.19506836 C69.29438751 374.67440292 68.24453674 374.15373749 67.16287231 373.61729431 C62.28591171 371.12352287 57.58515619 368.35519406 52.875 365.5625 C50.77772039 364.32878659 48.68004991 363.09573744 46.58203125 361.86328125 C45.50518066 361.22986816 44.42833008 360.59645508 43.31884766 359.94384766 C36.65894422 356.04314505 29.96614781 352.19890558 23.26831055 348.36376953 C18.38738139 345.56269539 13.53409432 342.73836252 8.7578125 339.76171875 C7.97591553 339.27993164 7.19401855 338.79814453 6.38842773 338.30175781 C4.96933008 337.42212191 3.55911459 336.52791048 2.16040039 335.61621094 C0.11573818 334.29820715 0.11573818 334.29820715 -3 333 C-6.70272254 334.12800689 -9.92732788 336.00832253 -13.26171875 337.94921875 C-14.79638794 338.83891357 -14.79638794 338.83891357 -16.36206055 339.74658203 C-17.45945557 340.38708496 -18.55685059 341.02758789 -19.6875 341.6875 C-20.84720011 342.36087956 -22.00711614 343.03388738 -23.16723633 343.70654297 C-25.57851579 345.10510117 -27.98885907 346.50525146 -30.3984375 347.90673828 C-44.57989037 356.15273289 -58.79309579 364.34460545 -73.0625 372.4375 C-74.54496216 373.28078857 -74.54496216 373.28078857 -76.05737305 374.14111328 C-77.40762573 374.90464111 -77.40762573 374.90464111 -78.78515625 375.68359375 C-79.97443726 376.35733032 -79.97443726 376.35733032 -81.18774414 377.04467773 C-83 378 -83 378 -84 378 C-84 267.78 -84 157.56 -84 44 C-74.76 38.72 -65.52 33.44 -56 28 C-51.99875 25.669375 -47.9975 23.33875 -43.875 20.9375 C-41.956875 19.82117187 -40.03875 18.70484375 -38.0625 17.5546875 C-34.27252172 15.34261354 -30.50005724 13.10434693 -26.74069214 10.84086609 C-24.36805418 9.41578553 -21.98765444 8.00400323 -19.60601807 6.59402466 C-17.91365069 5.58553219 -16.23181581 4.55943125 -14.55029297 3.53295898 C-13.52049316 2.92524658 -12.49069336 2.31753418 -11.4296875 1.69140625 C-10.52460449 1.14685791 -9.61952148 0.60230957 -8.68701172 0.04125977 C-5.2648982 -1.28486364 -3.5108889 -0.99893891 0 0 Z " fill="#000000" transform="translate(2248,1498)"/>
<path d="M0 0 C8.88399816 4.73813235 17.65991164 9.45002081 26.3125 14.5625 C28.39419721 15.78442343 30.47624071 17.00575706 32.55859375 18.2265625 C33.61804199 18.84821289 34.67749023 19.46986328 35.76904297 20.11035156 C41.12439285 23.24246643 46.49928772 26.34050345 51.875 29.4375 C52.95434814 30.05955322 54.03369629 30.68160645 55.14575195 31.32250977 C57.33632735 32.58480624 59.52700131 33.8469317 61.71777344 35.10888672 C67.14659942 38.23680148 72.57319281 41.36858448 78 44.5 C80.16665583 45.75001879 82.3333225 47.00001878 84.5 48.25 C88.83333333 50.75 93.16666667 53.25 97.5 55.75 C98.57266113 56.36883057 99.64532227 56.98766113 100.75048828 57.62524414 C102.91557071 58.87435518 105.08060982 60.12354129 107.24560547 61.37280273 C112.68615706 64.51202309 118.12747216 67.64990563 123.5703125 70.78515625 C134.02206199 76.80747329 144.46299548 82.84669337 154.875 88.9375 C163.55262241 94.01275123 172.26605568 99.02258767 181 104 C190.72115617 109.5400173 200.40894658 115.13374809 210.06689453 120.78344727 C220.57328259 126.9273965 231.1186387 133.00319756 241.66503906 139.078125 C245.08753546 141.05044503 248.50883773 143.02482613 251.9296875 145 C253.07195801 145.65943604 254.21422852 146.31887207 255.39111328 146.99829102 C257.54323389 148.24078949 259.69526077 149.48345031 261.84716797 150.72631836 C269.55223568 155.17337519 277.27562136 159.58606935 285 164 C285 193.04 285 222.08 285 252 C281.37 253.98 277.74 255.96 274 258 C262.78694019 264.19101379 251.58593748 270.41356625 240.5625 276.9375 C239.60561279 277.50126343 239.60561279 277.50126343 238.62939453 278.07641602 C234.78293393 280.34525951 230.94746144 282.63149982 227.11851501 284.92979431 C224.75769811 286.34193645 222.38943339 287.74126549 220.01974487 289.13845825 C218.84821543 289.8328992 217.67979015 290.53260617 216.51467896 291.23776245 C214.87723395 292.22797223 213.22785546 293.19836525 211.578125 294.16796875 C210.62325195 294.73797607 209.66837891 295.3079834 208.68457031 295.89526367 C205.4968381 297.2070578 204.22785588 297.10743697 201 296 C198.6418457 294.83935547 198.6418457 294.83935547 196.17578125 293.3671875 C195.24330566 292.81619385 194.31083008 292.2652002 193.35009766 291.69750977 C192.34769043 291.09608154 191.3452832 290.49465332 190.3125 289.875 C188.13974019 288.58913841 185.96654843 287.30400648 183.79296875 286.01953125 C182.67067871 285.3538916 181.54838867 284.68825195 180.39208984 284.00244141 C174.99305852 280.81524874 169.5594716 277.68875325 164.125 274.5625 C161.94005632 273.30346844 159.75516075 272.04435339 157.5703125 270.78515625 C156.48524414 270.16012207 155.40017578 269.53508789 154.28222656 268.89111328 C148.85340058 265.76319852 143.42680719 262.63141552 138 259.5 C135.83334417 258.24998121 133.6666775 256.99998122 131.5 255.75 C99 237 99 237 66.5 218.25 C65.42733887 217.63116943 64.35467773 217.01233887 63.24951172 216.37475586 C61.08442929 215.12564482 58.91939018 213.87645871 56.75439453 212.62719727 C51.31384294 209.48797691 45.87252784 206.35009437 40.4296875 203.21484375 C24.93513358 194.287205 9.47974557 185.29426713 -5.95898438 176.27050781 C-8.93065506 174.53393163 -11.90268519 172.79797346 -14.875 171.0625 C-15.85855469 170.48822266 -16.84210937 169.91394531 -17.85546875 169.32226562 C-26.34547701 164.37068083 -34.86213862 159.46593418 -43.38085938 154.56396484 C-51.67441246 149.78375752 -59.92521008 144.93425479 -68.14892578 140.03491211 C-68.99438965 139.5322583 -69.83985352 139.02960449 -70.7109375 138.51171875 C-71.44618652 138.07303467 -72.18143555 137.63435059 -72.93896484 137.18237305 C-74.92653326 136.04214634 -76.94012804 135.00264137 -79 134 C-76.53130845 131.24486564 -73.82225209 129.60028776 -70.6171875 127.77734375 C-69.00360352 126.85405273 -69.00360352 126.85405273 -67.35742188 125.91210938 C-66.19661902 125.25389842 -65.03581163 124.59569548 -63.875 123.9375 C-62.08157726 122.91342252 -60.2891558 121.8876074 -58.49676514 120.86172485 C-57.30766791 120.18130309 -56.11825599 119.50143099 -54.92852783 118.82211304 C-50.42963674 116.25234733 -45.95703288 113.64149922 -41.5 111 C-32.9793073 105.96041452 -24.39861831 101.02508003 -15.81835938 96.08789062 C-14.74908203 95.47236328 -13.67980469 94.85683594 -12.578125 94.22265625 C-11.62325195 93.67359619 -10.66837891 93.12453613 -9.68457031 92.55883789 C-7.86423568 91.50183201 -6.06162602 90.41381066 -4.27636719 89.29858398 C-2 88 -2 88 0 88 C0 58.96 0 29.92 0 0 Z " fill="#000000" transform="translate(2512,2202)"/>
<path d="M0 0 C0 28.71 0 57.42 0 87 C1.65 87.66 3.3 88.32 5 89 C6.71934044 89.89375257 8.42309042 90.81790133 10.11328125 91.765625 C11.59550171 92.59513672 11.59550171 92.59513672 13.10766602 93.44140625 C14.16526123 94.03824219 15.22285645 94.63507812 16.3125 95.25 C17.97333618 96.18392578 17.97333618 96.18392578 19.66772461 97.13671875 C29.14682128 102.48379804 38.56085928 107.93901675 47.94140625 113.45703125 C52.22024259 115.97113785 56.52223775 118.43981113 60.83984375 120.88671875 C62.5113147 121.84094727 62.5113147 121.84094727 64.21655273 122.81445312 C66.36857769 124.04207863 68.52550412 125.26116027 70.68774414 126.47070312 C71.64672607 127.02048828 72.60570801 127.57027344 73.59375 128.13671875 C74.44646484 128.61842529 75.29917969 129.10013184 76.17773438 129.59643555 C76.77908203 130.05961182 77.38042969 130.52278809 78 131 C78 131.99 78 132.98 78 134 C77.36835938 134.35078613 76.73671875 134.70157227 76.0859375 135.06298828 C63.39427938 142.11975136 50.76263087 149.25887841 38.23632812 156.60595703 C30.52204876 161.12600344 22.76871892 165.57454531 15 170 C5.27857016 175.53953103 -4.40895304 181.13375187 -14.06689453 186.78344727 C-24.59084625 192.93766742 -35.15380137 199.02369996 -45.71777344 205.10888672 C-51.14659942 208.23680148 -56.57319281 211.36858448 -62 214.5 C-64.16665583 215.75001879 -66.3333225 217.00001878 -68.5 218.25 C-69.5725 218.86875 -70.645 219.4875 -71.75 220.125 C-133.5 255.75 -133.5 255.75 -136.75048828 257.62524414 C-138.91557071 258.87435518 -141.08060982 260.12354129 -143.24560547 261.37280273 C-148.68615706 264.51202309 -154.12747216 267.64990563 -159.5703125 270.78515625 C-160.65473633 271.41043213 -161.73916016 272.03570801 -162.85644531 272.67993164 C-165.0184006 273.92513908 -167.1817919 275.16785693 -169.34667969 276.40795898 C-174.8633984 279.57566391 -180.33489693 282.79890336 -185.7578125 286.125 C-186.84819824 286.78556396 -187.93858398 287.44612793 -189.06201172 288.12670898 C-191.13910922 289.3879516 -193.20648072 290.6653976 -195.26220703 291.96118164 C-196.65608643 292.80217407 -196.65608643 292.80217407 -198.078125 293.66015625 C-199.29097168 294.41244507 -199.29097168 294.41244507 -200.52832031 295.17993164 C-203.99693461 296.3307688 -205.70015621 295.45033457 -209 294 C-210.81322256 293.06721403 -212.5997186 292.08106039 -214.359375 291.05078125 C-215.3793457 290.45765137 -216.39931641 289.86452148 -217.45019531 289.25341797 C-218.53913086 288.61291504 -219.62806641 287.97241211 -220.75 287.3125 C-221.90428788 286.63891211 -223.05891676 285.96590827 -224.21386719 285.29345703 C-226.61390505 283.89556198 -229.01245688 282.49516352 -231.41015625 281.09326172 C-235.92879535 278.45449235 -240.46627207 275.84866444 -245.00317383 273.24145508 C-254.5521591 267.75217074 -264.07499582 262.21991497 -273.5625 256.625 C-274.50319336 256.07118652 -275.44388672 255.51737305 -276.41308594 254.94677734 C-277.26805664 254.44098145 -278.12302734 253.93518555 -279.00390625 253.4140625 C-279.75486572 252.9701416 -280.5058252 252.5262207 -281.27954102 252.06884766 C-283 251 -283 251 -284 250 C-284.09514592 247.29161914 -284.12554932 244.60881487 -284.11352539 241.90014648 C-284.11367142 241.05143982 -284.11381744 240.20273315 -284.1139679 239.32830811 C-284.11326848 236.50921109 -284.10547478 233.69017929 -284.09765625 230.87109375 C-284.09579217 228.92196183 -284.09436822 226.97282945 -284.09336853 225.0236969 C-284.08954255 219.88293168 -284.07971159 214.74219453 -284.06866455 209.60144043 C-284.05845215 204.35994852 -284.05387128 199.1184521 -284.04882812 193.87695312 C-284.03808939 183.58462306 -284.02101201 173.29231386 -284 163 C-121.5 69.25 -121.5 69.25 -118.24951172 67.37475586 C-116.08442929 66.12564482 -113.91939018 64.87645871 -111.75439453 63.62719727 C-106.31384294 60.48797691 -100.87252784 57.35009437 -95.4296875 54.21484375 C-84.97793881 48.19252718 -74.53694017 42.15341586 -64.125 36.0625 C-54.82040338 30.61937276 -45.47101142 25.25778703 -36.10095215 19.92849731 C-26.85655146 14.66924345 -17.6783806 9.30652991 -8.57373047 3.80834961 C-7.73213379 3.30440674 -6.89053711 2.80046387 -6.0234375 2.28125 C-5.29044434 1.83845703 -4.55745117 1.39566406 -3.80224609 0.93945312 C-2 0 -2 0 0 0 Z " fill="#000000" transform="translate(1976,2203)"/>
<path d="M0 0 C2.62161921 1.34901706 5.18605087 2.73611763 7.75 4.1875 C8.53439453 4.62747314 9.31878906 5.06744629 10.12695312 5.52075195 C18.67261032 10.3372291 27.13309594 15.30075563 35.59765625 20.2578125 C42.36320692 24.21777617 49.14777004 28.14419556 55.9375 32.0625 C57.00871094 32.6814917 58.07992187 33.3004834 59.18359375 33.93823242 C60.20453125 34.52709229 61.22546875 35.11595215 62.27734375 35.72265625 C63.16671631 36.23578369 64.05608887 36.74891113 64.97241211 37.27758789 C68.96450904 39.54871472 72.98507119 41.76948399 77 44 C77 73.04 77 102.08 77 132 C68.75 136.62 60.5 141.24 52 146 C45.7893561 149.63372613 45.7893561 149.63372613 39.59375 153.29296875 C32.52155867 157.47917689 25.38417941 161.5546873 18.25805664 165.64819336 C17.20481201 166.2541333 16.15156738 166.86007324 15.06640625 167.484375 C13.53330811 168.36125977 13.53330811 168.36125977 11.96923828 169.25585938 C10.01186154 170.4056291 8.0766115 171.59405032 6.16748047 172.82226562 C5.29623535 173.38107422 4.42499023 173.93988281 3.52734375 174.515625 C2.7705835 175.01868164 2.01382324 175.52173828 1.23413086 176.04003906 C-1.69243574 177.29752566 -2.99250739 176.99013277 -6 176 C-7.93527142 175.04545333 -9.8329214 174.01290909 -11.69921875 172.9296875 C-12.81280762 172.28813721 -13.92639648 171.64658691 -15.07373047 170.9855957 C-16.27840356 170.28220636 -17.48299121 169.57867066 -18.6875 168.875 C-19.94119601 168.14933892 -21.19527096 167.42433217 -22.44970703 166.69995117 C-25.03448301 165.20605187 -27.61698025 163.70832192 -30.19775391 162.20751953 C-33.74385316 160.14648209 -37.29831658 158.10049956 -40.85546875 156.05859375 C-51.45750985 149.97016831 -62.0307634 143.83431837 -72.5625 137.625 C-73.50335449 137.07110596 -74.44420898 136.51721191 -75.41357422 135.9465332 C-76.26838379 135.44081787 -77.12319336 134.93510254 -78.00390625 134.4140625 C-78.75486572 133.9701416 -79.5058252 133.5262207 -80.27954102 133.06884766 C-82 132 -82 132 -83 131 C-83.14300203 128.35472795 -83.22106247 125.73465949 -83.25634766 123.0871582 C-83.27095032 122.25784286 -83.28555298 121.42852753 -83.30059814 120.57408142 C-83.42670415 112.91325177 -83.49535825 105.25136964 -83.54844093 97.58971882 C-83.58421285 92.43933329 -83.63752684 87.29050842 -83.73388672 82.14086914 C-83.82669776 77.16638367 -83.87536013 72.19327976 -83.89283371 67.21797752 C-83.90693285 65.32202523 -83.93658426 63.42612189 -83.98213577 61.53066444 C-84.32096859 46.70551676 -84.32096859 46.70551676 -81.12776184 42.58273315 C-78.79753675 40.99433479 -76.63965043 39.97176336 -74 39 C-73.03118896 38.42443359 -72.06237793 37.84886719 -71.06420898 37.25585938 C-70.21673096 36.78986328 -69.36925293 36.32386719 -68.49609375 35.84375 C-67.5205957 35.30347168 -66.54509766 34.76319336 -65.54003906 34.20654297 C-64.51620117 33.64338379 -63.49236328 33.08022461 -62.4375 32.5 C-53.81866377 27.71786184 -45.25364874 22.85913124 -36.75 17.875 C-35.77184326 17.30386475 -34.79368652 16.73272949 -33.78588867 16.14428711 C-28.83616849 13.25315108 -23.89710255 10.34537816 -18.96875 7.41796875 C-17.06274565 6.29906061 -15.15650572 5.18055364 -13.25 4.0625 C-12.3744043 3.53575684 -11.49880859 3.00901367 -10.59667969 2.46630859 C-9.78618164 1.99402832 -8.97568359 1.52174805 -8.140625 1.03515625 C-7.43454102 0.6162915 -6.72845703 0.19742676 -6.00097656 -0.23413086 C-3.51267056 -1.18652421 -2.46598423 -0.93058328 0 0 Z " fill="#000000" transform="translate(2247,2049)"/>
</svg>
