<?xml version="1.0" encoding="UTF-8"?>
<svg version="1.1" xmlns="http://www.w3.org/2000/svg" width="4500" height="4500">
<path d="M0 0 C1485 0 2970 0 4500 0 C4500 1485 4500 2970 4500 4500 C3015 4500 1530 4500 0 4500 C0 3015 0 1530 0 0 Z " fill="#FEFEFE" transform="translate(0,0)"/>
<path d="M0 0 C2.88178623 1.35605769 5.62504151 2.84447972 8.38623047 4.43237305 C10.05613037 5.3896228 10.05613037 5.3896228 11.75976562 6.36621094 C12.96472854 7.06135964 14.16964262 7.756593 15.37451172 8.4519043 C16.63135971 9.17409047 17.88836083 9.8960102 19.14550781 10.61767578 C22.3733832 12.47183497 25.59890521 14.33004383 28.82354736 16.18981934 C31.68226376 17.83832613 34.54219626 19.48472117 37.40185547 21.1315918 C42.75979281 24.21919606 48.11493673 27.31161363 53.46923828 30.40551758 C58.87371817 33.52765035 64.28048584 36.64581634 69.68701172 39.7644043 C71.85368922 41.01438551 74.02035589 42.26438551 76.18701172 43.5144043 C77.79576172 44.4425293 77.79576172 44.4425293 79.43701172 45.3894043 C100.02034505 57.2644043 120.60367839 69.1394043 141.18701172 81.0144043 C142.25967285 81.63323486 143.33233398 82.25206543 144.4375 82.88964844 C146.60258243 84.13875948 148.76762154 85.38794559 150.93261719 86.63720703 C156.37316878 89.77642739 161.81448388 92.91430992 167.25732422 96.04956055 C177.70907371 102.07187758 188.1500072 108.11109767 198.56201172 114.2019043 C207.83265102 119.62399128 217.1463787 124.96764441 226.47747803 130.28463745 C235.55479807 135.45819217 244.59272705 140.69582584 253.60888672 145.9753418 C261.27275146 150.45606695 268.97387006 154.86934654 276.68701172 159.2644043 C286.40825677 164.80426363 296.0959604 170.39815361 305.75390625 176.04785156 C316.27785797 182.20207171 326.84081309 188.28810426 337.40478516 194.37329102 C342.83361114 197.50120578 348.26020453 200.63298878 353.68701172 203.7644043 C355.85366755 205.01442309 358.02033422 206.26442308 360.18701172 207.5144043 C373.18701172 215.0144043 386.18701172 222.5144043 399.18701172 230.0144043 C400.25967285 230.63323486 401.33233398 231.25206543 402.4375 231.88964844 C404.60258243 233.13875948 406.76762154 234.38794559 408.93261719 235.63720703 C414.37316878 238.77642739 419.81448388 241.91430992 425.25732422 245.04956055 C426.34174805 245.67475586 427.42617187 246.29995117 428.54345703 246.9440918 C430.7056938 248.18962287 432.86908883 249.43314555 435.03369141 250.67456055 C440.54260621 253.84071919 446.01479891 257.05436694 451.44482422 260.35424805 C452.53520996 261.01030029 453.6255957 261.66635254 454.74902344 262.34228516 C456.82422656 263.59347785 458.891478 264.8579867 460.94921875 266.13769531 C461.87847168 266.69513428 462.80772461 267.25257324 463.76513672 267.8269043 C464.9779834 268.57133789 464.9779834 268.57133789 466.21533203 269.33081055 C469.48632999 270.56631985 471.33589166 270.1838003 474.68701172 269.2644043 C477.39467101 268.03766254 477.39467101 268.03766254 480.04638672 266.4128418 C481.06603516 265.81665039 482.08568359 265.22045898 483.13623047 264.60620117 C484.22548828 263.9571582 485.31474609 263.30811523 486.43701172 262.6394043 C487.59398523 261.95938252 488.75154885 261.28036383 489.90966797 260.60229492 C492.3136632 259.19373106 494.71506945 257.78089789 497.11474609 256.36499023 C502.61536052 253.12423452 508.15304581 249.94774107 513.68701172 246.7644043 C515.85385206 245.51470538 518.02051822 244.2647044 520.18701172 243.0144043 C741.18701171 115.5144043 741.18701171 115.5144043 744.4375 113.63916016 C746.60258243 112.39004912 748.76762154 111.140863 750.93261719 109.89160156 C756.37316878 106.7523812 761.81448388 103.61449867 767.25732422 100.47924805 C777.70907371 94.45693101 788.1500072 88.41771092 798.56201172 82.3269043 C807.83200949 76.90519252 817.14532924 71.56235514 826.47546387 66.24517822 C835.59984012 61.04395301 844.68833946 55.78412552 853.75390625 50.48095703 C864.27785797 44.32673688 874.84081309 38.24070434 885.40478516 32.15551758 C889.75323868 29.65007865 894.10024432 27.14213499 898.44702148 24.63378906 C900.59309413 23.39556449 902.73941259 22.15776584 904.88598633 20.92041016 C909.9785009 17.9844611 915.06877156 15.04479799 920.15194702 12.0927124 C922.5613518 10.69372376 924.97191262 9.29673401 927.38256836 7.89990234 C929.09000154 6.90942358 930.79575144 5.9160449 932.50146484 4.92260742 C934.04543945 4.02832031 934.04543945 4.02832031 935.62060547 3.1159668 C936.52866943 2.58825684 937.4367334 2.06054688 938.37231445 1.5168457 C940.68701172 0.2644043 940.68701172 0.2644043 943.68701172 -0.7355957 C945.94165039 0.21386719 945.94165039 0.21386719 948.60498047 1.73706055 C949.59925049 2.2995752 950.59352051 2.86208984 951.61791992 3.44165039 C953.22993286 4.37485107 953.22993286 4.37485107 954.87451172 5.3269043 C955.99365967 5.96450684 957.11280762 6.60210938 958.26586914 7.2590332 C966.69654947 12.06738396 975.07893685 16.96130032 983.45141602 21.87011719 C991.16479769 26.39136577 998.91844318 30.83903527 1006.68701172 35.2644043 C1016.40844156 40.80393533 1026.09596476 46.39815616 1035.75390625 52.04785156 C1046.27785797 58.20207171 1056.84081309 64.28810426 1067.40478516 70.37329102 C1072.83361114 73.50120578 1078.26020453 76.63298878 1083.68701172 79.7644043 C1085.85366755 81.01442309 1088.02033422 82.26442308 1090.18701172 83.5144043 C1172.52034505 131.0144043 1254.85367839 178.5144043 1337.18701172 226.0144043 C1338.25967285 226.63323486 1339.33233398 227.25206543 1340.4375 227.88964844 C1342.60258243 229.13875948 1344.76762154 230.38794559 1346.93261719 231.63720703 C1352.37316878 234.77642739 1357.81448388 237.91430992 1363.25732422 241.04956055 C1373.70907371 247.07187758 1384.1500072 253.11109767 1394.56201172 259.2019043 C1403.23963413 264.27715553 1411.9530674 269.28699196 1420.68701172 274.2644043 C1430.40816789 279.80442159 1440.0959583 285.39815238 1449.75390625 291.04785156 C1460.27785797 297.20207171 1470.84081309 303.28810426 1481.40478516 309.37329102 C1486.83361114 312.50120578 1492.26020453 315.63298878 1497.68701172 318.7644043 C1499.85366755 320.01442309 1502.02033422 321.26442308 1504.18701172 322.5144043 C1543.18701172 345.0144043 1582.18701172 367.5144043 1621.18701172 390.0144043 C1622.79684937 390.94313354 1622.79684937 390.94313354 1624.43920898 391.890625 C1626.59860566 393.13646199 1628.75794841 394.38239248 1630.91723633 395.62841797 C1636.44468769 398.81789383 1641.97316293 402.00557315 1647.50341797 405.19018555 C1657.26713066 410.81416265 1667.03004696 416.43918023 1676.74951172 422.1394043 C1677.45213135 422.55037354 1678.15475098 422.96134277 1678.87866211 423.38476562 C1683.56653455 426.14392713 1683.56653455 426.14392713 1684.68701172 427.2644043 C1684.79060657 429.1274981 1684.822862 430.99456853 1684.82847023 432.86053181 C1684.8345609 434.08604478 1684.84065157 435.31155775 1684.84692681 436.57420748 C1684.84869522 437.95452627 1684.85036916 439.33484518 1684.85195923 440.71516418 C1684.85724361 442.17174858 1684.8629604 443.62833145 1684.86907375 445.0849126 C1684.88471148 449.12456345 1684.89400771 453.16420861 1684.90229833 457.20388034 C1684.91232753 461.584819 1684.92798322 465.96573815 1684.94286346 470.34666252 C1684.97145504 479.05246059 1684.99437459 487.75826553 1685.01547144 496.46408464 C1685.03314803 503.70476481 1685.05311866 510.94543565 1685.07452011 518.18610573 C1685.30974232 597.95112865 1685.44155124 677.71643285 1685.54150513 757.48172948 C1685.55603489 769.03477661 1685.57112529 780.58782301 1685.58642578 792.14086914 C1685.58810428 793.41749993 1685.58978278 794.69413071 1685.59151214 796.00944728 C1685.64630429 837.40907536 1685.75237976 878.80837253 1685.88600311 920.20781527 C1686.02304965 962.74507261 1686.1112864 1005.28214944 1686.13682858 1047.81962723 C1686.14045071 1053.82436244 1686.14461777 1059.82909716 1686.14910889 1065.83383179 C1686.14997373 1067.01567214 1686.15083858 1068.19751249 1686.15172963 1069.41516619 C1686.16707516 1088.45748262 1686.23380018 1107.49929055 1686.31945343 1126.54140606 C1686.40437734 1145.67358118 1686.43471469 1164.80522462 1686.40904558 1183.93757659 C1686.39543699 1195.31196694 1686.42383121 1206.68446415 1686.51183807 1218.05853177 C1686.56648306 1225.65173859 1686.5668871 1233.24368514 1686.52281309 1240.83695774 C1686.49923789 1245.167545 1686.49958232 1249.49453645 1686.56593823 1253.82475913 C1686.92743405 1278.86626262 1686.92743405 1278.86626262 1683.22920609 1284.4755187 C1679.25210286 1288.29461846 1674.88326239 1289.71025153 1669.68701172 1291.2644043 C1667.57677284 1292.42081188 1665.49024841 1293.62340711 1663.44873047 1294.8972168 C1661.42475865 1296.06261371 1659.40000121 1297.22664714 1657.37451172 1298.3894043 C1655.10756396 1299.69405587 1652.84063748 1300.99874442 1650.57373047 1302.3034668 C1649.43210449 1302.95992187 1648.29047852 1303.61637695 1647.11425781 1304.29272461 C1641.63545375 1307.44465662 1636.16140059 1310.60481226 1630.68701172 1313.7644043 C1628.52036946 1315.0144466 1626.35370275 1316.26444653 1624.18701172 1317.5144043 C1623.11451172 1318.1331543 1622.04201172 1318.7519043 1620.93701172 1319.3894043 C1403.18701167 1445.01440433 1403.18701167 1445.01440433 1399.93652344 1446.88964844 C1397.77144101 1448.13875948 1395.6064019 1449.38794559 1393.44140625 1450.63720703 C1388.00085466 1453.77642739 1382.55953956 1456.91430992 1377.11669922 1460.04956055 C1366.66494972 1466.07187758 1356.22401624 1472.11109767 1345.81201172 1478.2019043 C1336.54137241 1483.62399128 1327.22764473 1488.96764441 1317.89654541 1494.28463745 C1309.79993329 1498.89924458 1301.72912371 1503.55525316 1293.68701172 1508.2644043 C1285.05203414 1513.3207147 1276.38087577 1518.3103456 1267.68701172 1523.2644043 C1250.23767121 1533.12083637 1250.23767121 1533.12083637 1233.02914929 1543.38414156 C1230.48312796 1544.81651498 1228.14337017 1545.92540166 1225.45970225 1547.01562631 C1217.18319463 1550.60273128 1217.18319463 1550.60273128 1211.70920664 1557.41280583 C1210.11988613 1563.94554233 1210.51535258 1570.66090069 1210.69219971 1577.33120728 C1210.68996386 1579.60692015 1210.68021167 1581.88263594 1210.6636045 1584.15828931 C1210.63950187 1590.40454276 1210.7211345 1596.64562204 1210.81992078 1602.89097548 C1210.89875094 1608.93631722 1210.8972999 1614.98128631 1210.89734508 1621.02700891 C1210.89994279 1633.39215164 1210.97970187 1645.75564602 1211.10175323 1658.12013626 C1211.26754875 1675.004801 1211.32552071 1691.88860938 1211.35553166 1708.7739989 C1211.3697089 1716.64355439 1211.38937782 1724.51309597 1211.41067123 1732.38263512 C1211.41279989 1733.17037108 1211.41492855 1733.95810705 1211.41712172 1734.7697138 C1211.46912468 1753.51068014 1211.57640484 1772.25127324 1211.69140625 1790.99194336 C1211.69642034 1791.81172675 1211.70143443 1792.63151014 1211.70660047 1793.47613545 C1211.75233115 1800.95045216 1211.79845528 1808.42476642 1211.844934 1815.89907853 C1211.95854554 1834.19854301 1212.062826 1852.49805455 1212.16113281 1870.79760742 C1212.16555452 1871.61725246 1212.16997624 1872.4368975 1212.17453194 1873.28138027 C1212.27523852 1891.99411791 1212.36309085 1910.70682146 1212.41617966 1929.41975975 C1212.41953857 1930.59938858 1212.41953857 1930.59938858 1212.42296533 1931.80284829 C1212.44508927 1939.65375932 1212.46533855 1947.50467255 1212.48260634 1955.35559578 C1212.5202698 1972.22266508 1212.59588759 1989.08840309 1212.74753033 2005.95485645 C1212.85763043 2018.24692179 1212.92409207 2030.53853133 1212.94463548 2042.83108021 C1212.95723941 2049.49188647 1212.99322692 2056.15116697 1213.08526802 2062.81149101 C1213.16920505 2068.90633288 1213.19362618 2074.9983796 1213.1703814 2081.09372811 C1213.17268719 2083.30096715 1213.19720999 2085.50831515 1213.24590865 2087.71501811 C1213.58372522 2103.77810635 1213.58372522 2103.77810635 1210.44543332 2107.89192149 C1206.9655196 2110.98684583 1202.99929125 2112.56376419 1198.68701172 2114.2644043 C1196.45643569 2115.45897237 1194.30785463 2116.7513778 1192.13623047 2118.0534668 C1189.8833949 2119.33399811 1187.62945403 2120.61258648 1185.37451172 2121.8894043 C1182.89830727 2123.29660264 1180.42333142 2124.70595085 1177.94873047 2126.1159668 C1177.33270966 2126.46685364 1176.71668884 2126.81774048 1176.08200073 2127.17926025 C1170.25960778 2130.49992283 1164.4702381 2133.87603491 1158.68701172 2137.2644043 C1150.0521762 2142.32095011 1141.38094609 2147.31047691 1132.68701172 2152.2644043 C1122.96576666 2157.80426363 1113.27806303 2163.39815361 1103.62011719 2169.04785156 C1093.09616547 2175.20207171 1082.53321034 2181.28810426 1071.96923828 2187.37329102 C1066.5404123 2190.50120578 1061.11381891 2193.63298878 1055.68701172 2196.7644043 C1053.52035589 2198.01442309 1051.35368922 2199.26442308 1049.18701172 2200.5144043 C1048.11451172 2201.1331543 1047.04201172 2201.7519043 1045.93701172 2202.3894043 C802.18701174 2343.01440428 802.18701174 2343.01440428 798.93652344 2344.88964844 C796.77144101 2346.13875948 794.6064019 2347.38794559 792.44140625 2348.63720703 C787.00085466 2351.77642739 781.55953956 2354.91430992 776.11669922 2358.04956055 C765.66494972 2364.07187758 755.22401624 2370.11109767 744.81201172 2376.2019043 C735.54201395 2381.62361607 726.2286942 2386.96645345 716.89855957 2392.28363037 C707.77418332 2397.48485559 698.68568398 2402.74468307 689.62011719 2408.04785156 C679.09616547 2414.20207171 668.53321034 2420.28810426 657.96923828 2426.37329102 C652.5404123 2429.50120578 647.11381891 2432.63298878 641.68701172 2435.7644043 C639.52035589 2437.01442309 637.35368922 2438.26442308 635.18701172 2439.5144043 C634.11451172 2440.1331543 633.04201172 2440.7519043 631.93701172 2441.3894043 C575.06201172 2474.2019043 575.06201172 2474.2019043 518.18701172 2507.0144043 C516.57584473 2507.94446289 516.57584473 2507.94446289 514.93212891 2508.89331055 C512.78299598 2510.13247356 510.63261991 2511.36948324 508.48095703 2512.60424805 C503.39599696 2515.52582243 498.32660827 2518.46785328 493.29943848 2521.4876709 C490.92338229 2522.9131768 488.54014548 2524.32642266 486.15625 2525.73876953 C484.47576188 2526.74128736 482.80583817 2527.76144706 481.13623047 2528.78198242 C479.60675781 2529.6859375 479.60675781 2529.6859375 478.04638672 2530.6081543 C477.1540332 2531.14633789 476.26167969 2531.68452148 475.34228516 2532.23901367 C472.00019163 2533.52963456 470.11350723 2533.18848803 466.68701172 2532.2644043 C464.17668034 2530.96296522 461.83009681 2529.6278968 459.43701172 2528.1394043 C457.92098015 2527.22255731 456.40398914 2526.30729562 454.88623047 2525.39331055 C454.05784668 2524.89202637 453.22946289 2524.39074219 452.37597656 2523.87426758 C447.37102909 2520.87784269 442.30675344 2517.98387618 437.24951172 2515.0769043 C435.0007433 2513.78145376 432.75204631 2512.48587921 430.50341797 2511.19018555 C429.37436035 2510.54001465 428.24530273 2509.88984375 427.08203125 2509.2199707 C421.61531192 2506.07108376 416.15126285 2502.91757166 410.68701172 2499.7644043 C408.52035861 2498.5143808 406.35369192 2497.26438083 404.18701172 2496.0144043 C365.18701172 2473.5144043 326.18701172 2451.0144043 287.18701172 2428.5144043 C285.57802002 2427.58615845 285.57802002 2427.58615845 283.93652344 2426.63916016 C281.77144101 2425.39004912 279.6064019 2424.140863 277.44140625 2422.89160156 C272.00085466 2419.7523812 266.55953956 2416.61449867 261.11669922 2413.47924805 C250.66494972 2407.45693101 240.22401624 2401.41771092 229.81201172 2395.3269043 C221.13438931 2390.25165306 212.42095604 2385.24181663 203.68701172 2380.2644043 C193.96585555 2374.724387 184.27806514 2369.13065621 174.62011719 2363.48095703 C164.09616547 2357.32673688 153.53321034 2351.24070434 142.96923828 2345.15551758 C137.5404123 2342.02760281 132.11381891 2338.89581982 126.68701172 2335.7644043 C124.52035589 2334.51438551 122.35368922 2333.26438551 120.18701172 2332.0144043 C37.85367839 2284.5144043 -44.47965495 2237.0144043 -126.81298828 2189.5144043 C-128.42197998 2188.58615845 -128.42197998 2188.58615845 -130.06347656 2187.63916016 C-132.22855899 2186.39004912 -134.3935981 2185.140863 -136.55859375 2183.89160156 C-141.99914534 2180.7523812 -147.44046044 2177.61449867 -152.88330078 2174.47924805 C-163.33505028 2168.45693101 -173.77598376 2162.41771092 -184.18798828 2156.3269043 C-193.45629061 2150.90618413 -202.76763192 2145.56380746 -212.09640503 2140.24819946 C-221.21701639 2135.05003463 -230.30544932 2129.79935602 -239.35791016 2124.4831543 C-249.29569294 2118.65730384 -259.30829639 2112.98137109 -269.31298828 2107.2644043 C-269.80798828 1834.0244043 -269.80798828 1834.0244043 -270.31298828 1555.2644043 C-279.55298828 1549.9844043 -288.79298828 1544.7044043 -298.31298828 1539.2644043 C-310.31298828 1532.2644043 -310.31298828 1532.2644043 -316.18798828 1528.8269043 C-322.87109114 1524.92842763 -329.59076919 1521.09482029 -336.31298828 1517.2644043 C-346.03423334 1511.72454497 -355.72193697 1506.13065498 -365.37988281 1500.48095703 C-375.90383453 1494.32673688 -386.46678966 1488.24070434 -397.03076172 1482.15551758 C-402.4595877 1479.02760281 -407.88618109 1475.89581982 -413.31298828 1472.7644043 C-415.47964411 1471.51438551 -417.64631078 1470.26438551 -419.81298828 1469.0144043 C-510.81298828 1416.5144043 -601.81298828 1364.0144043 -692.81298828 1311.5144043 C-693.88726074 1310.8946875 -694.9615332 1310.2749707 -696.06835938 1309.63647461 C-698.21731785 1308.39657893 -700.36608351 1307.15634901 -702.51464844 1305.91577148 C-707.59023594 1302.98567856 -712.66772563 1300.05904021 -717.75213623 1297.14428711 C-720.15339058 1295.76743904 -722.55354354 1294.38867738 -724.95361328 1293.00976562 C-726.64785431 1292.03743726 -728.34368409 1291.06787889 -730.03955078 1290.09838867 C-731.06564453 1289.50864258 -732.09173828 1288.91889648 -733.14892578 1288.3112793 C-734.05175293 1287.79404297 -734.95458008 1287.27680664 -735.88476562 1286.74389648 C-736.6860791 1286.25566406 -737.48739258 1285.76743164 -738.31298828 1285.2644043 C-739.36242147 1284.65705428 -739.36242147 1284.65705428 -740.43305532 1284.03743457 C-742.31298828 1282.2644043 -742.31298828 1282.2644043 -742.81592696 1279.64399473 C-742.81731669 1278.57889764 -742.81870643 1277.51380055 -742.82013828 1276.41642779 C-742.83708108 1274.57026344 -742.83708108 1274.57026344 -742.85436615 1272.68680283 C-742.84670271 1271.31092282 -742.83867353 1269.93504481 -742.8303194 1268.55916882 C-742.8360051 1267.09933953 -742.84344092 1265.63951619 -742.85247621 1264.1797038 C-742.87231986 1260.14029009 -742.86703074 1256.10122969 -742.8578653 1252.06179178 C-742.85225646 1247.67777615 -742.86965885 1243.29384391 -742.88416785 1238.90985709 C-742.90637495 1231.2170688 -742.91351785 1223.52437838 -742.91093445 1215.83156013 C-742.90710116 1204.39223004 -742.92592837 1192.95301614 -742.94909927 1181.51371298 C-742.99195227 1159.89735869 -743.00706574 1138.28103771 -743.01296464 1116.66464575 C-743.01361985 1114.27924312 -743.01428102 1111.8938405 -743.01494813 1109.50843787 C-743.0152793 1108.32419806 -743.01561048 1107.13995824 -743.01595169 1105.91983237 C-743.02005275 1092.81248003 -743.03130875 1079.7051353 -743.04294395 1066.59778786 C-743.0773969 1027.02999833 -743.10604634 987.46221821 -743.10782337 947.89441204 C-743.10788628 946.62811588 -743.10794918 945.36181971 -743.10801399 944.05715094 C-743.10832114 937.63856156 -743.10857266 931.21997218 -743.10881905 924.8013828 C-743.10892296 922.22501041 -743.10902689 919.64863802 -743.10913086 917.07226562 C-743.10917615 915.79580834 -743.10922143 914.51935105 -743.10926809 913.20421323 C-743.11094859 873.0852893 -743.14806645 832.96652798 -743.21166992 792.84765625 C-743.28305972 747.80845479 -743.32402529 702.76936235 -743.32246608 657.73010093 C-743.32241363 652.93088996 -743.32248295 648.131679 -743.32263756 643.33246803 C-743.32265836 642.15071841 -743.32267917 640.96896879 -743.32270061 639.75140857 C-743.32376056 620.70320045 -743.35398654 601.65514468 -743.39432141 582.60698402 C-743.4340461 563.47515947 -743.44037227 544.34354898 -743.41255347 525.21170148 C-743.39696819 513.83494121 -743.40650454 502.45884277 -743.45161899 491.08215778 C-743.47925138 483.49117634 -743.47443042 475.90067186 -743.44277127 468.30970708 C-743.42563798 463.97869374 -743.42297529 459.64896284 -743.45965204 455.31804236 C-743.49270926 451.38078176 -743.48464473 447.44586863 -743.44321337 443.50870682 C-743.43558826 442.09045841 -743.44317801 440.6720296 -743.46751347 439.25396949 C-743.63674492 428.69307441 -743.63674492 428.69307441 -740.33151998 425.12589601 C-738.04657482 423.57665431 -735.83069898 422.38543688 -733.31298828 421.2644043 C-731.95065063 420.44649414 -731.95065063 420.44649414 -730.56079102 419.61206055 C-729.79710205 419.18795898 -729.03341309 418.76385742 -728.24658203 418.3269043 C-727.36188232 417.83206543 -726.47718262 417.33722656 -725.56567383 416.82739258 C-724.6366626 416.31160645 -723.70765137 415.79582031 -722.75048828 415.2644043 C-714.62352985 410.71183604 -706.53870918 406.09692577 -698.50048828 401.3894043 C-686.89360781 394.59547874 -675.24905823 387.86850518 -663.59521484 381.15551758 C-658.16638886 378.02760281 -652.73979547 374.89581982 -647.31298828 371.7644043 C-645.14633245 370.51438551 -642.97966578 369.26438551 -640.81298828 368.0144043 C-639.74048828 367.3956543 -638.66798828 366.7769043 -637.56298828 366.1394043 C-393.81298828 225.5144043 -393.81298828 225.5144043 -390.5625 223.63916016 C-388.39741757 222.39004912 -386.23237846 221.140863 -384.06738281 219.89160156 C-378.62683122 216.7523812 -373.18551612 213.61449867 -367.74267578 210.47924805 C-357.29092629 204.45693101 -346.8499928 198.41771092 -336.43798828 192.3269043 C-327.16799051 186.90519252 -317.85467076 181.56235514 -308.52453613 176.24517822 C-299.40015988 171.04395301 -290.31166054 165.78412552 -281.24609375 160.48095703 C-270.72214203 154.32673688 -260.15918691 148.24070434 -249.59521484 142.15551758 C-244.16638886 139.02760281 -238.73979547 135.89581982 -233.31298828 132.7644043 C-231.14633245 131.51438551 -228.97966578 130.26438551 -226.81298828 129.0144043 C-225.74048828 128.3956543 -224.66798828 127.7769043 -223.56298828 127.1394043 C-109.81298828 61.5144043 -109.81298828 61.5144043 -106.5625 59.63916016 C-104.39741757 58.39004912 -102.23237846 57.140863 -100.06738281 55.89160156 C-94.62683122 52.7523812 -89.18551612 49.61449867 -83.74267578 46.47924805 C-69.23804845 38.12198435 -54.76549666 29.71143619 -40.31298828 21.2644043 C-38.19845837 20.02863581 -36.08387438 18.79295984 -33.96923828 17.55737305 C-32.92501709 16.94708252 -31.8807959 16.33679199 -30.80493164 15.70800781 C-28.75509972 14.51201831 -26.7038671 13.31842572 -24.65112305 12.12744141 C-20.36376885 9.63968206 -16.08879244 7.14307581 -11.87158203 4.5378418 C-10.90309326 3.95075439 -10.90309326 3.95075439 -9.91503906 3.35180664 C-8.2758504 2.35577031 -6.64735191 1.34219595 -5.02001953 0.3269043 C-2.31298828 -0.7355957 -2.31298828 -0.7355957 0 0 Z " fill="#2D949F" transform="translate(1773.31298828125,1006.735595703125)"/>
<path d="M0 0 C0.93328125 0.54011719 1.8665625 1.08023438 2.828125 1.63671875 C3.94703125 2.24902344 5.0659375 2.86132812 6.21875 3.4921875 C7.50831485 4.26436679 8.79455314 5.04211796 10.078125 5.82421875 C11.59431415 6.7317028 13.11129388 7.63786681 14.62890625 8.54296875 C15.45729004 9.03796875 16.28567383 9.53296875 17.13916016 10.04296875 C22.15480365 13.01574165 27.21230727 15.91611347 32.265625 18.82421875 C33.92416504 19.77977661 33.92416504 19.77977661 35.61621094 20.75463867 C37.88836582 22.06372532 40.16066509 23.37256137 42.43310547 24.68115234 C47.8998248 27.83003929 53.36387387 30.98355139 58.828125 34.13671875 C60.99477811 35.38674225 63.16144479 36.63674222 65.328125 37.88671875 C95.66145833 55.38671875 125.99479167 72.88671875 156.328125 90.38671875 C157.40078613 91.00554932 158.47344727 91.62437988 159.57861328 92.26196289 C161.74369571 93.51107393 163.90873482 94.76026004 166.07373047 96.00952148 C171.51428206 99.14874184 176.95559716 102.28662438 182.3984375 105.421875 C192.85018699 111.44419204 203.29112048 117.48341212 213.703125 123.57421875 C222.97376431 128.99630574 232.28749199 134.33995887 241.61859131 139.6569519 C250.69591136 144.83050662 259.73384033 150.06814029 268.75 155.34765625 C276.41386474 159.8283814 284.11498335 164.24166099 291.828125 168.63671875 C301.54937006 174.17657808 311.23707368 179.77046807 320.89501953 185.42016602 C331.41897125 191.57438617 341.98192637 197.66041871 352.54589844 203.74560547 C357.97472442 206.87352023 363.40131781 210.00530323 368.828125 213.13671875 C370.99478083 214.38673754 373.1614475 215.63673753 375.328125 216.88671875 C379.66145833 219.38671875 383.99479167 221.88671875 388.328125 224.38671875 C389.40078613 225.00554932 390.47344727 225.62437988 391.57861328 226.26196289 C393.74369571 227.51107393 395.90873482 228.76026004 398.07373047 230.00952148 C403.51428206 233.14874184 408.95559716 236.28662438 414.3984375 239.421875 C425.22176667 245.657998 436.03633851 251.90863477 446.828125 258.19921875 C447.7886377 258.75875244 448.74915039 259.31828613 449.73876953 259.89477539 C450.65513184 260.42965576 451.57149414 260.96453613 452.515625 261.515625 C453.40121094 262.02754395 454.28679688 262.53946289 455.19921875 263.06689453 C456.98928226 264.13581247 458.75219611 265.25123961 460.48828125 266.40576172 C465.50319744 269.70394842 465.50319744 269.70394842 471.28515625 270.890625 C476.42941566 269.06999957 480.8702551 266.41297084 485.515625 263.57421875 C487.66187782 262.29149084 489.80905148 261.01030271 491.95703125 259.73046875 C493.63949951 258.72306641 493.63949951 258.72306641 495.35595703 257.6953125 C500.58633776 254.58007921 505.88534187 251.58487441 511.17993164 248.58059692 C521.63421475 242.64725508 532.02733176 236.6181822 542.34228516 230.44506836 C543.18710449 229.94112549 544.03192383 229.43718262 544.90234375 228.91796875 C545.64057373 228.47517578 546.37880371 228.03238281 547.1394043 227.57617188 C548.828125 226.63671875 548.828125 226.63671875 549.828125 226.63671875 C550.2173021 269.01571811 550.51682091 311.39451119 550.6962356 353.77494373 C550.71749742 358.77916463 550.73950091 363.78338201 550.76196289 368.78759766 C550.76642217 369.78383989 550.77088145 370.78008212 550.77547585 371.8065135 C550.84943382 387.93428882 550.98346088 404.0610332 551.13972253 420.18819706 C551.29874419 436.73834262 551.39313291 453.28794859 551.42762941 469.83882678 C551.45094846 480.05096524 551.52456188 490.26019003 551.66270494 500.47143133 C551.75262711 507.4754156 551.77971607 514.47789575 551.75764842 521.48241524 C551.74676379 525.52403291 551.76332645 529.56056578 551.85461807 533.6012764 C552.36210066 557.2094906 552.36210066 557.2094906 548.17074084 562.87834787 C544.21809237 566.38212877 539.89707773 568.30419131 534.91002452 569.91042447 C531.78947866 570.99906232 529.19970147 572.6278991 526.39453125 574.3671875 C524.39365879 575.52027706 522.39235106 576.67261164 520.390625 577.82421875 C518.14191549 579.11977155 515.89321792 580.41534507 513.64453125 581.7109375 C512.51547363 582.3611084 511.38641602 583.0112793 510.22314453 583.68115234 C504.7564252 586.83003929 499.29237613 589.98355139 493.828125 593.13671875 C491.66147189 594.38674225 489.49480521 595.63674222 487.328125 596.88671875 C485.719375 597.81484375 485.719375 597.81484375 484.078125 598.76171875 C422.32812499 634.38671875 422.32812499 634.38671875 419.07763672 636.26196289 C416.91255429 637.51107393 414.74751518 638.76026004 412.58251953 640.00952148 C407.14196794 643.14874184 401.70065284 646.28662438 396.2578125 649.421875 C385.80606301 655.44419204 375.36512952 661.48341212 364.953125 667.57421875 C355.68312723 672.99593053 346.36980748 678.3387679 337.03967285 683.65594482 C327.9152966 688.85717004 318.82679726 694.11699753 309.76123047 699.42016602 C299.23727875 705.57438617 288.67432363 711.66041871 278.11035156 717.74560547 C272.68152558 720.87352023 267.25493219 724.00530323 261.828125 727.13671875 C259.66146917 728.38673754 257.4948025 729.63673753 255.328125 730.88671875 C253.719375 731.81484375 253.719375 731.81484375 252.078125 732.76171875 C86.32812499 828.38671876 86.32812499 828.38671876 83.07763672 830.26196289 C80.91255429 831.51107393 78.74751518 832.76026004 76.58251953 834.00952148 C71.14196794 837.14874184 65.70065284 840.28662438 60.2578125 843.421875 C49.5799968 849.57418326 38.91184996 855.74238229 28.265625 861.94921875 C27.27892822 862.52236816 26.29223145 863.09551758 25.27563477 863.68603516 C20.72830472 866.33282325 16.20365585 869.0053517 11.7265625 871.76953125 C10.94611572 872.24608154 10.16566895 872.72263184 9.36157227 873.21362305 C7.92990081 874.09069297 6.50524733 874.97937506 5.08959961 875.88208008 C0.47616654 878.69404912 0.47616654 878.69404912 -2.52587891 878.4284668 C-5.61320347 877.50466226 -8.08268899 876.18483016 -10.87109375 874.56640625 C-11.98436035 873.92501709 -13.09762695 873.28362793 -14.24462891 872.62280273 C-15.44961261 871.91922511 -16.65452613 871.21552725 -17.859375 870.51171875 C-19.11599316 869.7845796 -20.37299806 869.05810842 -21.63037109 868.33227539 C-24.21815364 866.83704225 -26.80363189 865.33794025 -29.38720703 863.83544922 C-33.95356406 861.18052975 -38.53151617 858.54584959 -43.10913086 855.91040039 C-46.31909167 854.06142166 -49.52702714 852.2089759 -52.734375 850.35546875 C-57.06596007 847.85242385 -61.39932103 845.35250102 -65.734375 842.85546875 C-76.18900451 836.83232136 -86.63235942 830.7914943 -97.046875 824.69921875 C-105.72449741 819.62396752 -114.43793068 814.61413108 -123.171875 809.63671875 C-132.89303117 804.09670145 -142.58082158 798.50297066 -152.23876953 792.85327148 C-162.76272125 786.69905133 -173.32567637 780.61301879 -183.88964844 774.52783203 C-189.31847442 771.39991727 -194.74506781 768.26813427 -200.171875 765.13671875 C-202.33853083 763.88669996 -204.5051975 762.63669997 -206.671875 761.38671875 C-263.00520833 728.88671875 -319.33854167 696.38671875 -375.671875 663.88671875 C-376.74453613 663.26788818 -377.81719727 662.64905762 -378.92236328 662.01147461 C-381.08744571 660.76236357 -383.25248482 659.51317746 -385.41748047 658.26391602 C-390.85803206 655.12469566 -396.29934716 651.98681312 -401.7421875 648.8515625 C-412.19393699 642.82924546 -422.63487048 636.79002538 -433.046875 630.69921875 C-441.72449741 625.62396752 -450.43793068 620.61413108 -459.171875 615.63671875 C-468.89303117 610.09670145 -478.58082158 604.50297066 -488.23876953 598.85327148 C-497.64465547 593.35287636 -507.08144655 587.90687669 -516.5234375 582.46875 C-520.5412532 580.15464614 -524.55662926 577.83643692 -528.56851196 575.5120697 C-530.9467349 574.13422372 -533.3256822 572.7576309 -535.70465088 571.381073 C-537.37784292 570.41221542 -539.0500195 569.44160484 -540.72216797 568.47094727 C-541.74197754 567.88112061 -542.76178711 567.29129395 -543.8125 566.68359375 C-545.15103027 565.90773926 -545.15103027 565.90773926 -546.51660156 565.11621094 C-549.35440236 563.5350163 -552.26625426 562.08952912 -555.171875 560.63671875 C-555.171875 450.08671875 -555.171875 339.53671875 -555.171875 225.63671875 C-546.2878781 230.37485043 -537.51193651 235.0866868 -528.859375 240.19921875 C-526.79330648 241.41203384 -524.72688713 242.62425146 -522.66015625 243.8359375 C-521.6026416 244.45645996 -520.54512695 245.07698242 -519.45556641 245.71630859 C-512.73136907 249.64883917 -505.98345419 253.54063175 -499.22631836 257.41625977 C-494.66712383 260.0320885 -490.11584965 262.6497728 -485.6328125 265.39453125 C-484.98908691 265.7827002 -484.34536133 266.17086914 -483.68212891 266.57080078 C-482.08290343 267.53920833 -480.49395851 268.52454247 -478.90625 269.51171875 C-475.39473627 270.95645583 -473.79336493 270.74328512 -470.171875 269.63671875 C-467.66154362 268.33527967 -465.31496009 267.00021126 -462.921875 265.51171875 C-461.40584343 264.59487177 -459.88885242 263.67961007 -458.37109375 262.765625 C-457.54270996 262.26434082 -456.71432617 261.76305664 -455.86083984 261.24658203 C-450.85589237 258.25015715 -445.79161672 255.35619063 -440.734375 252.44921875 C-438.48560658 251.15376822 -436.23690959 249.85819367 -433.98828125 248.5625 C-432.29469482 247.58724365 -432.29469482 247.58724365 -430.56689453 246.59228516 C-425.1001752 243.44339821 -419.63612613 240.28988611 -414.171875 237.13671875 C-412.00522189 235.88669525 -409.83855521 234.63669528 -407.671875 233.38671875 C-406.599375 232.76796875 -405.526875 232.14921875 -404.421875 231.51171875 C-342.671875 195.88671875 -342.671875 195.88671875 -339.42138672 194.01147461 C-337.25630429 192.76236357 -335.09126518 191.51317746 -332.92626953 190.26391602 C-327.48571794 187.12469566 -322.04440284 183.98681312 -316.6015625 180.8515625 C-306.14981301 174.82924546 -295.70887952 168.79002538 -285.296875 162.69921875 C-276.02687723 157.27750697 -266.71355748 151.9346696 -257.38342285 146.61749268 C-248.2590466 141.41626746 -239.17054726 136.15643997 -230.10498047 130.85327148 C-219.58102875 124.69905133 -209.01807363 118.61301879 -198.45410156 112.52783203 C-193.02527558 109.39991727 -187.59868219 106.26813427 -182.171875 103.13671875 C-180.00521917 101.88669996 -177.8385525 100.63669997 -175.671875 99.38671875 C-174.599375 98.76796875 -173.526875 98.14921875 -172.421875 97.51171875 C-58.671875 31.88671875 -58.671875 31.88671875 -55.41796875 30.00952148 C-53.2642578 28.76695856 -51.11061133 27.52428386 -48.95703125 26.28149414 C-43.93503238 23.38357252 -38.91244693 20.48668526 -33.88745117 17.59396362 C-32.12141978 16.57724677 -30.35560069 15.56016217 -28.58984375 14.54296875 C-26.38453345 13.27271002 -24.17883284 12.00312857 -21.97265625 10.734375 C-20.96589844 10.15429688 -19.95914063 9.57421875 -18.921875 8.9765625 C-17.47167969 8.14874268 -17.47167969 8.14874268 -15.9921875 7.30419922 C-14.10220955 6.18676939 -12.24185881 5.01775082 -10.4140625 3.80126953 C-3.95289652 -0.45273322 -3.95289652 -0.45273322 0 0 Z " fill="#FEFEFE" transform="translate(2246.171875,2444.36328125)"/>
<path d="M0 0 C2.54174805 1.25244141 2.54174805 1.25244141 5.26171875 2.8515625 C6.28458984 3.44775391 7.30746094 4.04394531 8.36132812 4.65820312 C10.0077832 5.63176758 10.0077832 5.63176758 11.6875 6.625 C12.84916922 7.30478918 14.01128693 7.98381248 15.17382812 8.66210938 C17.58817446 10.07158303 20.00055922 11.48432987 22.41162109 12.89941406 C27.92318583 16.13055521 33.4629938 19.31272995 39 22.5 C41.16679965 23.74976947 43.3334659 24.99977024 45.5 26.25 C47.10875 27.178125 47.10875 27.178125 48.75 28.125 C78 45 107.25 61.875 136.5 78.75 C137.57266113 79.36883057 138.64532227 79.98766113 139.75048828 80.62524414 C141.91557071 81.87435518 144.08060982 83.12354129 146.24560547 84.37280273 C151.68615706 87.51202309 157.12747216 90.64990563 162.5703125 93.78515625 C173.02206199 99.80747329 183.46299548 105.84669337 193.875 111.9375 C202.55262662 117.01275369 211.26621513 122.02230332 220 127 C240.11696219 138.46768682 260.07998869 150.19400998 280 162 C277.22262654 164.98885268 274.56071009 167.01050908 270.984375 168.9609375 C269.99300537 169.5075 269.00163574 170.0540625 267.98022461 170.6171875 C266.91425049 171.19726562 265.84827637 171.77734375 264.75 172.375 C262.47427442 173.63102768 260.19955898 174.88888706 257.92578125 176.1484375 C257.34667496 176.46866882 256.76756866 176.78890015 256.1709137 177.11883545 C250.37736855 180.32929606 244.65186844 183.65121133 238.9375 187 C237.96893066 187.56654297 237.00036133 188.13308594 236.00244141 188.71679688 C230.73937674 191.79888933 225.48402281 194.89391843 220.23046875 197.9921875 C218.57253296 198.96671875 218.57253296 198.96671875 216.88110352 199.9609375 C214.74784295 201.21494986 212.61673364 202.47263068 210.48803711 203.734375 C209.53550049 204.29382812 208.58296387 204.85328125 207.6015625 205.4296875 C206.75932129 205.92710449 205.91708008 206.42452148 205.04931641 206.93701172 C203 208 203 208 201 208 C201.00493636 209.16497749 201.00987273 210.32995498 201.01495868 211.53023481 C201.23163111 262.8664293 201.43219551 314.2026597 201.55046082 365.53918457 C201.55225556 366.31625524 201.5540503 367.0933259 201.55589943 367.89394417 C201.5948062 384.78132046 201.63081871 401.66870177 201.66384928 418.55609056 C201.68006482 426.83752503 201.69692 435.11895813 201.71411133 443.40039062 C201.71666113 444.63655127 201.71666113 444.63655127 201.71926244 445.89768485 C201.77467144 472.61495661 201.87232649 499.33187122 201.99186387 526.04892655 C202.11446959 553.50159638 202.1945064 580.95406851 202.22089487 608.40700749 C202.22464095 612.28351026 202.22887423 616.16001236 202.23340416 620.03651428 C202.23471891 621.1809538 202.23471891 621.1809538 202.23606022 622.34851332 C202.2514296 634.63589471 202.31174192 646.92266527 202.38881644 659.20979745 C202.46532426 671.5592287 202.49459103 683.90805374 202.47551791 696.25771374 C202.46649299 702.95092432 202.4801802 709.64212386 202.54967117 716.33512878 C202.61280232 722.46016984 202.61622535 728.58220561 202.57168563 734.70738322 C202.56617912 736.92560623 202.58279361 739.14401452 202.62348137 741.36187118 C202.90248415 757.50585233 202.90248415 757.50585233 199.75524782 761.63186419 C196.2761965 764.72770378 192.31346324 766.30221535 188 768 C185.7692283 769.19431657 183.62082765 770.48681778 181.44921875 771.7890625 C179.19638318 773.06959382 176.94244231 774.34818218 174.6875 775.625 C172.21129555 777.03219835 169.7363197 778.44154656 167.26171875 779.8515625 C166.33768753 780.37789276 166.33768753 780.37789276 165.39498901 780.91485596 C159.57259607 784.23551853 153.78322638 787.61163061 148 791 C139.36516449 796.05654581 130.69393437 801.04607261 122 806 C112.27875494 811.53985933 102.59105132 817.13374932 92.93310547 822.78344727 C82.40915375 828.93766742 71.84619863 835.02369996 61.28222656 841.10888672 C55.85340058 844.23680148 50.42680719 847.36858448 45 850.5 C42.83334417 851.75001879 40.6666775 853.00001878 38.5 854.25 C36.89125 855.178125 36.89125 855.178125 35.25 856.125 C-208.5 996.75 -208.5 996.75 -211.75268555 998.62646484 C-213.91049803 999.87141282 -216.06821353 1001.1165289 -218.22583008 1002.36181641 C-223.77716592 1005.56552651 -229.33036541 1008.7659363 -234.88671875 1011.9609375 C-237.15374771 1013.26544797 -239.42067645 1014.57013262 -241.6875 1015.875 C-242.77095703 1016.49834229 -243.85441406 1017.12168457 -244.97070312 1017.76391602 C-251.63925068 1021.60984963 -258.27387986 1025.50457218 -264.81518555 1029.56396484 C-268.78854186 1032 -268.78854186 1032 -271 1032 C-271 1061.04 -271 1090.08 -271 1120 C-275.62 1117.36 -280.24 1114.72 -285 1112 C-287.78851732 1110.45190895 -290.57905101 1108.90937072 -293.375 1107.375 C-302.55960635 1102.30124568 -311.60982089 1097.00492126 -320.6640625 1091.703125 C-327.05281992 1087.96365411 -333.46116076 1084.25874966 -339.875 1080.5625 C-340.95458984 1079.94028564 -342.03417969 1079.31807129 -343.14648438 1078.67700195 C-345.3368252 1077.41488483 -347.52725502 1076.15292215 -349.71777344 1074.89111328 C-355.14659942 1071.76319852 -360.57319281 1068.63141552 -366 1065.5 C-368.16665583 1064.24998121 -370.3333225 1062.99998122 -372.5 1061.75 C-489.50000001 994.24999999 -489.50000001 994.24999999 -492.7512207 992.37426758 C-494.91378583 991.1266526 -497.07638339 989.87909384 -499.23901367 988.6315918 C-504.71870371 985.47056551 -510.19779358 982.30850691 -515.67578125 979.14453125 C-516.78759766 978.50257813 -517.89941406 977.860625 -519.04492188 977.19921875 C-521.10764131 976.00819246 -523.17016747 974.81683131 -525.23242188 973.625 C-535.46885408 967.71544723 -545.73715239 961.86448435 -556 956 C-556 745.13 -556 534.26 -556 317 C-548.41 312.71 -540.82 308.42 -533 304 C-529.05476393 301.71948966 -525.11502296 299.43506719 -521.1875 297.125 C-509.58184858 290.32899282 -497.93605309 283.60409117 -486.28222656 276.89111328 C-480.85340058 273.76319852 -475.42680719 270.63141552 -470 267.5 C-467.83334417 266.24998121 -465.6666775 264.99998122 -463.5 263.75 C-462.4275 263.13125 -461.355 262.5125 -460.25 261.875 C-320.5 181.25 -320.5 181.25 -317.24951172 179.37475586 C-315.08442929 178.12564482 -312.91939018 176.87645871 -310.75439453 175.62719727 C-305.31384294 172.48797691 -299.87252784 169.35009437 -294.4296875 166.21484375 C-283.97793801 160.19252671 -273.53700452 154.15330663 -263.125 148.0625 C-253.85500223 142.64078822 -244.54168248 137.29795085 -235.21154785 131.98077393 C-226.0871716 126.77954871 -216.99867226 121.51972122 -207.93310547 116.21655273 C-197.40915375 110.06233258 -186.84619863 103.97630004 -176.28222656 97.89111328 C-170.85340058 94.76319852 -165.42680719 91.63141552 -160 88.5 C-157.83334417 87.24998121 -155.6666775 85.99998122 -153.5 84.75 C-152.4275 84.13125 -151.355 83.5125 -150.25 82.875 C-62.49999999 32.25 -62.49999999 32.25 -59.24658203 30.37304688 C-57.09128689 29.1295949 -54.93601327 27.88610564 -52.78076172 26.64257812 C-47.77662326 23.75537125 -42.7722948 20.8684957 -37.76715088 17.98303223 C-36.01658759 16.97380896 -34.26609589 15.96446164 -32.515625 14.95507812 C-30.33607835 13.6983234 -28.15640168 12.44179414 -25.9765625 11.18554688 C-24.97625 10.60869141 -23.9759375 10.03183594 -22.9453125 9.4375 C-21.96981445 8.87933594 -20.99431641 8.32117187 -19.98925781 7.74609375 C-17.89126259 6.52060683 -15.81389595 5.25944301 -13.75292969 3.97265625 C-12.69750977 3.32167969 -11.64208984 2.67070313 -10.5546875 2 C-9.60835449 1.401875 -8.66202148 0.80375 -7.68701172 0.1875 C-4.47185996 -1.23340661 -3.28387285 -1.14555958 0 0 Z " fill="#FEFEFE" transform="translate(1775,1225)"/>
<path d="M0 0 C2.32641602 1.14477539 2.32641602 1.14477539 4.75390625 2.59765625 C5.67623047 3.14357422 6.59855469 3.68949219 7.54882812 4.25195312 C8.54333984 4.84943359 9.53785156 5.44691406 10.5625 6.0625 C12.72971204 7.34633034 14.89771303 8.62882957 17.06640625 9.91015625 C18.20094238 10.58191895 19.33547852 11.25368164 20.50439453 11.94580078 C25.71508008 15.01805902 30.97459056 18.00477834 36.23269653 20.99487305 C46.54782894 26.86144764 56.82395047 32.7915375 67.06689453 38.78344727 C77.59084625 44.93766742 88.15380137 51.02369996 98.71777344 57.10888672 C104.14659942 60.23680148 109.57319281 63.36858448 115 66.5 C117.16665583 67.75001879 119.3333225 69.00001878 121.5 70.25 C206 119 206 119 290.5 167.75 C291.57266113 168.36883057 292.64532227 168.98766113 293.75048828 169.62524414 C295.91557071 170.87435518 298.08060982 172.12354129 300.24560547 173.37280273 C305.68615706 176.51202309 311.12747216 179.64990563 316.5703125 182.78515625 C327.02206199 188.80747329 337.46299548 194.84669337 347.875 200.9375 C356.55262241 206.01275123 365.26605568 211.02258767 374 216 C383.72115617 221.5400173 393.40894658 227.13374809 403.06689453 232.78344727 C413.59084625 238.93766742 424.15380137 245.02369996 434.71777344 251.10888672 C440.14659942 254.23680148 445.57319281 257.36858448 451 260.5 C453.16665583 261.75001879 455.3333225 263.00001878 457.5 264.25 C496.5 286.75 496.5 286.75 499.75463867 288.62768555 C501.90583224 289.86875254 504.05703655 291.10980093 506.20825195 292.35083008 C511.25962999 295.26498344 516.3109031 298.17931818 521.36178589 301.09432983 C523.15066918 302.12673478 524.93958717 303.15907956 526.72851562 304.19140625 C528.97337636 305.48685948 531.2181719 306.7824257 533.46289062 308.078125 C534.47931641 308.66464844 535.49574219 309.25117187 536.54296875 309.85546875 C537.43008545 310.36746826 538.31720215 310.87946777 539.23120117 311.40698242 C542.48352348 313.27819334 545.74217509 315.13838577 549 317 C549 527.87 549 738.74 549 956 C540.75 960.62 532.5 965.24 524 970 C515.0368581 975.20530347 515.0368581 975.20530347 506.08984375 980.4375 C499.78429581 984.1321331 493.45705564 987.78852681 487.125 991.4375 C486.04484619 992.06003662 484.96469238 992.68257324 483.85180664 993.32397461 C481.66203666 994.58576826 479.47217645 995.84740534 477.28222656 997.10888672 C471.85340058 1000.23680148 466.42680719 1003.36858448 461 1006.5 C458.83334417 1007.75001879 456.6666775 1009.00001878 454.5 1010.25 C452.89125 1011.178125 452.89125 1011.178125 451.25 1012.125 C404.66666667 1039 358.08333333 1065.875 311.5 1092.75 C310.42548584 1093.3699585 309.35097168 1093.98991699 308.24389648 1094.62866211 C306.09773773 1095.86673743 303.95141859 1097.10453478 301.80493164 1098.34204102 C296.69475475 1101.28864907 291.58635857 1104.23823494 286.48348999 1107.19747925 C284.05448023 1108.60588062 281.62456812 1110.01272093 279.19458008 1111.41943359 C277.46542149 1112.42132206 275.7375822 1113.42548641 274.00976562 1114.4296875 C272.97400391 1115.02910156 271.93824219 1115.62851563 270.87109375 1116.24609375 C269.95255615 1116.77904053 269.03401855 1117.3119873 268.08764648 1117.86108398 C266 1119 266 1119 265 1119 C265 1090.29 265 1061.58 265 1032 C263.35 1031.34 261.7 1030.68 260 1030 C258.79328243 1029.39447864 257.59833393 1028.76478438 256.41796875 1028.109375 C255.74652832 1027.73731934 255.07508789 1027.36526367 254.38330078 1026.98193359 C253.65868652 1026.57539551 252.93407227 1026.16885742 252.1875 1025.75 C251.40616699 1025.31381348 250.62483398 1024.87762695 249.81982422 1024.42822266 C242.35765465 1020.24084956 234.97276297 1015.92300108 227.59057617 1011.59667969 C219.75745932 1007.01042201 211.88692251 1002.4927339 204 998 C194.27856294 992.46048161 184.59104683 986.86624806 174.93310547 981.21655273 C164.40915375 975.06233258 153.84619863 968.97630004 143.28222656 962.89111328 C137.85340058 959.76319852 132.42680719 956.63141552 127 953.5 C124.83334417 952.24998121 122.6666775 950.99998122 120.5 949.75 C-3 878.5 -3 878.5 -126.5 807.25 C-127.57266113 806.63116943 -128.64532227 806.01233887 -129.75048828 805.37475586 C-131.91557071 804.12564482 -134.08060982 802.87645871 -136.24560547 801.62719727 C-141.68615706 798.48797691 -147.12747216 795.35009437 -152.5703125 792.21484375 C-163.39364167 785.97872075 -174.20821351 779.72808398 -185 773.4375 C-186.44076904 772.59819946 -186.44076904 772.59819946 -187.91064453 771.74194336 C-205.55995083 761.44004917 -205.55995083 761.44004917 -207 760 C-207.08215964 757.09544804 -207.09772117 754.21526834 -207.07162571 751.31088734 C-207.06727761 750.38363394 -207.06292951 749.45638055 -207.05844966 748.50102857 C-207.04254469 745.35259583 -207.01951024 742.20425231 -206.99671936 739.05586243 C-206.98411564 736.79221473 -206.97201199 734.5285642 -206.96036905 732.26491135 C-206.93412796 727.32170729 -206.90493954 722.37853228 -206.87358284 717.43535805 C-206.82284719 709.39385194 -206.77917226 701.35231804 -206.73764038 693.3107605 C-206.73408399 692.62232116 -206.7305276 691.93388183 -206.72686344 691.2245807 C-206.70859087 687.67942397 -206.69045795 684.13426655 -206.67241882 680.58910863 C-206.65751672 677.66463377 -206.64236538 674.74016035 -206.62700666 671.81568785 C-206.50651313 648.84635661 -206.42123943 625.87708801 -206.36314392 602.90751648 C-206.36116583 602.13275835 -206.35918774 601.35800022 -206.35714971 600.55976457 C-206.31837898 585.36076847 -206.28270927 570.16176575 -206.25070202 554.96275389 C-206.22985719 545.0688348 -206.20777026 535.17491914 -206.18432617 525.28100586 C-206.18239991 524.45946105 -206.18047365 523.63791624 -206.17848902 522.79147613 C-206.11553363 496.17099983 -205.97717641 469.55154959 -205.80068113 442.93160504 C-205.61967794 415.56838964 -205.51773341 388.2059667 -205.51386835 360.84212654 C-205.51327905 356.97529344 -205.51177371 353.10846122 -205.50970268 349.24162865 C-205.50932118 348.48060315 -205.50893968 347.71957766 -205.50854662 346.93549079 C-205.50006523 334.69617129 -205.4082736 322.45883304 -205.28494973 310.22019089 C-205.16264258 297.90954751 -205.12782489 285.60110581 -205.18164993 273.28995112 C-205.20838307 266.62128742 -205.19366568 259.95741434 -205.07515144 253.2892704 C-203.06840934 228.33520152 -203.06840934 228.33520152 -210.37463069 205.52855849 C-215.93615029 200.37672183 -221.96434176 197.75978088 -229.21922386 195.80563295 C-232.9907601 194.7129618 -235.82720026 192.99815023 -239.1171875 190.87890625 C-241.03619381 189.77297837 -242.95545708 188.66749623 -244.875 187.5625 C-246.44713257 186.65516113 -246.44713257 186.65516113 -248.05102539 185.72949219 C-253.1857485 182.76704931 -258.32443804 179.81191443 -263.47399902 176.87535095 C-265.88326663 175.50081294 -268.29051049 174.12275311 -270.6975708 172.74435425 C-272.40105042 171.77083061 -274.10747822 170.80247151 -275.81396484 169.83422852 C-276.84344238 169.24440186 -277.87291992 168.6545752 -278.93359375 168.046875 C-279.84165771 167.52963867 -280.74972168 167.01240234 -281.68530273 166.47949219 C-283.77350796 165.14476761 -285.34578204 163.83066332 -287 162 C-228.5 128.25 -228.5 128.25 -225.24951172 126.37475586 C-223.08442929 125.12564482 -220.91939018 123.87645871 -218.75439453 122.62719727 C-213.31384294 119.48797691 -207.87252784 116.35009437 -202.4296875 113.21484375 C-191.97793801 107.19252671 -181.53700452 101.15330663 -171.125 95.0625 C-161.85500223 89.64078822 -152.54168248 84.29795085 -143.21154785 78.98077393 C-134.0871716 73.77954871 -124.99867226 68.51972122 -115.93310547 63.21655273 C-105.40915375 57.06233258 -94.84619863 50.97630004 -84.28222656 44.89111328 C-78.85340062 41.76319854 -73.42677993 38.63146269 -68 35.5 C-61.47766725 31.73636081 -54.95486238 27.97355378 -48.4296875 24.21484375 C-47.34518311 23.58964844 -46.26067871 22.96445313 -45.14331055 22.3203125 C-42.98172536 21.07506375 -40.81914256 19.83154496 -38.65551758 18.58984375 C-33.13856516 15.41737556 -27.65388376 12.20172871 -22.20703125 8.91015625 C-21.11213379 8.254104 -20.01723633 7.59805176 -18.88916016 6.92211914 C-16.80206611 5.66913062 -14.72189726 4.40451135 -12.64990234 3.12670898 C-11.71742676 2.56927002 -10.78495117 2.01183105 -9.82421875 1.4375 C-9.01041748 0.94121094 -8.19661621 0.44492188 -7.3581543 -0.06640625 C-4.38705658 -1.24266442 -3.01542053 -0.98439232 0 0 Z " fill="#FEFEFE" transform="translate(2720,1225)"/>
<path d="M0 0 C2.47167969 1.16064453 2.47167969 1.16064453 4.921875 2.6328125 C5.85112793 3.18380615 6.78038086 3.7347998 7.73779297 4.30249023 C8.73182129 4.90391846 9.72584961 5.50534668 10.75 6.125 C12.91360121 7.41093269 15.07768002 8.6960621 17.2421875 9.98046875 C18.35819336 10.6461084 19.47419922 11.31174805 20.62402344 11.99755859 C26.01252847 15.19371988 31.44344987 18.31523689 36.875 21.4375 C38.78916384 22.54018869 40.70322222 23.64306045 42.6171875 24.74609375 C45.05351562 26.14988281 47.48984375 27.55367187 50 29 C58.58 33.95 67.16 38.9 76 44 C76 154.22 76 264.44 76 378 C61.09056754 369.86758229 46.18045632 361.71191717 31.5625 353.0625 C30.9245752 352.68738281 30.28665039 352.31226563 29.62939453 351.92578125 C25.77711637 349.65677168 21.94229835 347.36118338 18.11851501 345.04441833 C15.75895201 343.62048742 13.39018058 342.2123501 11.01974487 340.80661011 C9.84738811 340.10666514 8.67894304 339.40012304 7.51467896 338.6867981 C5.87932985 337.68585039 4.22894602 336.70959444 2.578125 335.734375 C1.14581543 334.87150879 1.14581543 334.87150879 -0.31542969 333.99121094 C-2.94396274 332.73118545 -2.94396274 332.73118545 -5.51367188 333.64746094 C-6.7444043 334.31696777 -6.7444043 334.31696777 -8 335 C-8.85561523 335.44666016 -9.71123047 335.89332031 -10.59277344 336.35351562 C-11.50575195 336.86591797 -12.41873047 337.37832031 -13.359375 337.90625 C-14.38361572 338.47988281 -15.40785645 339.05351563 -16.46313477 339.64453125 C-17.54780029 340.25683594 -18.63246582 340.86914062 -19.75 341.5 C-21.43790649 342.44939453 -21.43790649 342.44939453 -23.15991211 343.41796875 C-30.66516267 347.65117693 -38.12259333 351.95587753 -45.53125 356.35546875 C-52.20229088 360.31562429 -58.91895587 364.19848442 -65.62915039 368.09179688 C-69.99704931 370.63317269 -74.33436079 373.19181495 -78.58984375 375.91796875 C-82 378 -82 378 -84 378 C-84 267.78 -84 157.56 -84 44 C-75.09 39.05 -75.09 39.05 -66 34 C-62.19845078 31.80585032 -58.40570403 29.60394823 -54.625 27.375 C-44.2779335 21.30375662 -33.8740417 15.33744232 -23.43994141 9.41748047 C-22.32538574 8.78342285 -21.21083008 8.14936523 -20.0625 7.49609375 C-19.010625 6.90038574 -17.95875 6.30467773 -16.875 5.69091797 C-13.75969333 3.85866474 -10.79009256 1.87537114 -7.87890625 -0.26538086 C-4.99513221 -1.39288555 -2.95672935 -0.75509383 0 0 Z " fill="#FEFEFE" transform="translate(2248,1498)"/>
<path d="M0 0 C-0.0407666 1.04632599 -0.0815332 2.09265198 -0.12353516 3.17068481 C-0.4937811 13.08422047 -0.73457668 22.993815 -0.8523407 32.91365242 C-0.91695193 38.0136649 -1.02528166 43.10452071 -1.23779297 48.20068359 C-3.08734073 69.56165644 -3.08734073 69.56165644 3.24713135 89.14712524 C8.82147114 94.07378252 15.11763784 96.70950689 22.12463379 99.01391602 C25.84429654 100.28954479 28.79679937 102.02575354 32.1171875 104.12109375 C34.03609498 105.2271931 35.95535539 106.33268045 37.875 107.4375 C40.02866923 108.67834481 42.18231426 109.91923163 44.3359375 111.16015625 C45.41713867 111.78293457 46.49833984 112.40571289 47.61230469 113.04736328 C51.19331946 115.11142758 54.77265987 117.1783705 58.3515625 119.24609375 C60.15185866 120.28592855 61.95217831 121.32572267 63.75250244 122.36550903 C65.46915208 123.35717984 67.1855065 124.34936163 68.90185547 125.34155273 C69.93455566 125.93782471 70.96725586 126.53409668 72.03125 127.1484375 C72.94455078 127.67614746 73.85785156 128.20385742 74.79882812 128.74755859 C76.17988691 129.53336511 77.57878495 130.28939248 79 131 C77.69204145 134.92387566 76.2626032 135.2734936 72.69140625 137.265625 C71.00217041 138.21804077 71.00217041 138.21804077 69.27880859 139.18969727 C68.04005672 139.87649669 66.8012867 140.5632634 65.5625 141.25 C64.28668728 141.96632588 63.01146657 142.68370709 61.73681641 143.40209961 C59.1093667 144.88243388 56.47988874 146.35906736 53.84912109 147.83349609 C48.16255782 151.02694518 42.51907265 154.29471932 36.875 157.5625 C34.72664702 158.80353174 32.5782094 160.04441698 30.4296875 161.28515625 C29.36975586 161.89762207 28.30982422 162.51008789 27.21777344 163.14111328 C21.81329355 166.26324605 16.40652588 169.38141204 11 172.5 C8.8333225 173.74998122 6.66665583 174.99998121 4.5 176.25 C-8.5 183.75 -8.5 183.75 -11.75048828 185.62524414 C-13.91557071 186.87435518 -16.08060982 188.12354129 -18.24560547 189.37280273 C-23.68615706 192.51202309 -29.12747216 195.64990563 -34.5703125 198.78515625 C-45.02206199 204.80747329 -55.46299548 210.84669337 -65.875 216.9375 C-75.14499777 222.35921178 -84.45831752 227.70204915 -93.78845215 233.01922607 C-102.9128284 238.22045129 -112.00132774 243.48027878 -121.06689453 248.78344727 C-131.58347855 254.93335892 -142.13914401 261.01491822 -152.69580078 267.09570312 C-157.13680867 269.65517272 -161.57530687 272.21897549 -166.01342773 274.78344727 C-168.19272854 276.04122622 -170.37320956 277.29696274 -172.55493164 278.55053711 C-177.7672052 281.54599133 -182.96225815 284.56437285 -188.125 287.64453125 C-189.56685669 288.49494995 -189.56685669 288.49494995 -191.0378418 289.36254883 C-192.83794846 290.42487311 -194.63155853 291.4983137 -196.41723633 292.5847168 C-197.21411865 293.05176025 -198.01100098 293.51880371 -198.83203125 294 C-199.52014893 294.4125 -200.2082666 294.825 -200.91723633 295.25 C-203.65972841 296.23756719 -205.23564408 295.83074194 -208 295 C-210.46102725 293.68628439 -212.81471088 292.33238679 -215.1875 290.875 C-216.71274102 289.95830195 -218.23883949 289.0430296 -219.765625 288.12890625 C-220.60029297 287.62762207 -221.43496094 287.12633789 -222.29492188 286.60986328 C-227.31161207 283.62429874 -232.37720079 280.72331499 -237.4375 277.8125 C-239.66276212 276.52995087 -241.88802251 275.24739874 -244.11328125 273.96484375 C-248.20017201 271.61118296 -252.28800936 269.25918218 -256.37678528 266.90879822 C-258.15129074 265.88849575 -259.92543737 264.86757224 -261.69946289 263.84643555 C-263.92317007 262.56666679 -266.14757649 261.28811196 -268.37280273 260.01098633 C-269.38673096 259.42728271 -270.40065918 258.8435791 -271.4453125 258.2421875 C-272.32719238 257.7354248 -273.20907227 257.22866211 -274.11767578 256.70654297 C-275.06884277 256.14338379 -276.02000977 255.58022461 -277 255 C-277.65985083 254.68330573 -278.31970165 254.36661146 -278.99954796 254.0403204 C-284.55442925 251.13095456 -284.55442925 251.13095456 -285.72667122 248.15555191 C-285.98631785 245.88338143 -285.99084019 243.73171505 -285.90820312 241.44604492 C-285.90937134 240.59675415 -285.91053955 239.74746338 -285.91174316 238.87243652 C-285.90618222 236.07343269 -285.84403255 233.27872489 -285.78125 230.48046875 C-285.76632419 228.53707711 -285.75493877 226.59365531 -285.74694824 224.65022278 C-285.71644073 219.54155988 -285.63788998 214.43472436 -285.54931641 209.32678223 C-285.46739482 204.11198651 -285.4309233 198.8968947 -285.390625 193.68164062 C-285.30489416 183.45362533 -285.16840403 173.22696477 -285 163 C-284.22693008 162.57178955 -283.45386017 162.1435791 -282.65736389 161.70239258 C-279.74938126 160.091025 -276.84188847 158.47878019 -273.93470764 156.8659668 C-272.68386086 156.17226324 -271.43282796 155.47889516 -270.18159485 154.78588867 C-261.87188417 150.18311444 -253.62608373 145.49186813 -245.4609375 140.63671875 C-239.85754155 137.31124198 -234.20842533 134.06505747 -228.5625 130.8125 C-226.90142212 129.85537109 -226.90142212 129.85537109 -225.20678711 128.87890625 C-222.93630921 127.57093309 -220.665719 126.26315487 -218.39501953 124.95556641 C-212.9283002 121.80667946 -207.46425113 118.65316736 -202 115.5 C-199.83334689 114.2499765 -197.66668021 112.99997653 -195.5 111.75 C-194.4275 111.13125 -193.355 110.5125 -192.25 109.875 C-182.5 104.25 -182.5 104.25 -179.24951172 102.37475586 C-177.08442929 101.12564482 -174.91939018 99.87645871 -172.75439453 98.62719727 C-167.31384294 95.48797691 -161.87252784 92.35009437 -156.4296875 89.21484375 C-145.97793801 83.19252671 -135.53700452 77.15330663 -125.125 71.0625 C-115.85500223 65.64078822 -106.54168248 60.29795085 -97.21154785 54.98077393 C-88.0871716 49.77954871 -78.99867226 44.51972122 -69.93310547 39.21655273 C-59.43691336 33.07856591 -48.90186662 27.0085231 -38.36572266 20.93945312 C-34.8510675 18.91417962 -31.33744531 16.88712521 -27.82421875 14.859375 C-27.23406982 14.51877548 -26.6439209 14.17817596 -26.03588867 13.82725525 C-23.20307244 12.19230093 -20.37031 10.55725345 -17.53759766 8.92211914 C-15.55530409 7.77827071 -13.5722884 6.63567234 -11.58837891 5.49462891 C-9.98204251 4.56706888 -8.37939541 3.63304926 -6.78271484 2.68896484 C-2.20923675 0 -2.20923675 0 0 0 Z " fill="#FEFEFE" transform="translate(1976,2203)"/>
<path d="M0 0 C1.91780091 0.95190608 3.83480168 1.90542428 5.75146484 2.85961914 C7.35288834 3.65584435 7.35288834 3.65584435 8.98666382 4.46815491 C12.62653202 6.3185008 16.13262899 8.32603747 19.625 10.4375 C21.08656818 11.3084194 22.54885737 12.17812951 24.01171875 13.046875 C25.19773682 13.75166992 25.19773682 13.75166992 26.40771484 14.47070312 C31.39604235 17.41352508 36.41854408 20.29733531 41.4375 23.1875 C42.54367676 23.82486084 43.64985352 24.46222168 44.78955078 25.11889648 C47.06123665 26.42762416 49.33304755 27.73613484 51.60498047 29.04443359 C57.07169975 32.19332051 62.53577646 35.3467849 68 38.5 C74.52232439 42.26365365 81.04513763 46.02644623 87.5703125 49.78515625 C98.02206199 55.80747329 108.46299548 61.84669337 118.875 67.9375 C127.55262241 73.01275123 136.26605568 78.02258767 145 83 C154.72115617 88.5400173 164.40894658 94.13374809 174.06689453 99.78344727 C184.59084625 105.93766742 195.15380137 112.02369996 205.71777344 118.10888672 C212.22729589 121.85946399 218.7339478 125.61501989 225.24072266 129.37036133 C230.70534663 132.52385162 236.17147902 135.6746704 241.640625 138.8203125 C242.74792969 139.45775391 243.85523437 140.09519531 244.99609375 140.75195312 C247.04498654 141.9313578 249.09439311 143.10987081 251.14453125 144.28710938 C253.17989632 145.45927368 255.18772186 146.68006618 257.17138672 147.93774414 C260.22084842 149.74937958 263.25955822 150.73969833 266.64501953 151.77905273 C273.42696567 154.21993112 278.95396627 156.82631059 283 163 C287.20517949 175.90454721 285.14951067 191.36488796 284.51062012 204.68609619 C284.28415903 209.90662547 284.18480305 215.12947477 284.07421875 220.35351562 C283.83935086 230.57516254 283.4647618 240.7864019 283 251 C282.28686142 251.39824478 281.57372284 251.79648956 280.838974 252.20680237 C278.15304822 253.70726489 275.46755344 255.20849529 272.78233337 256.71022034 C271.06464459 257.67055196 269.3464755 258.63002433 267.6282959 259.58947754 C260.22533586 263.73052948 252.88720238 267.96300586 245.59375 272.29296875 C238.52155867 276.47917689 231.38417941 280.5546873 224.25805664 284.64819336 C223.20481201 285.2541333 222.15156738 285.86007324 221.06640625 286.484375 C220.04562988 287.06896484 219.02485352 287.65355469 217.97314453 288.25585938 C216.00553157 289.41012338 214.05767209 290.59880262 212.13232422 291.82226562 C211.25205566 292.38107422 210.37178711 292.93988281 209.46484375 293.515625 C208.69648193 294.01868164 207.92812012 294.52173828 207.13647461 295.04003906 C205 296 205 296 203.03442383 295.82202148 C200.56572899 294.82453012 198.305375 293.63957358 195.984375 292.33203125 C194.9931665 291.77588135 194.00195801 291.21973145 192.98071289 290.64672852 C191.91457764 290.04143311 190.84844238 289.4361377 189.75 288.8125 C188.63681396 288.184646 187.52362793 287.55679199 186.37670898 286.90991211 C176.89739329 281.54697604 167.48571542 276.0700557 158.08984375 270.5625 C151.78429581 266.8678669 145.45705564 263.21147319 139.125 259.5625 C138.04484619 258.93996338 136.96469238 258.31742676 135.85180664 257.67602539 C133.66203666 256.41423174 131.47217645 255.15259466 129.28222656 253.89111328 C122.77128743 250.13971976 116.26336806 246.38309006 109.75488281 242.62744141 C104.31414664 239.48817754 98.87268523 236.35018503 93.4296875 233.21484375 C82.97793801 227.19252671 72.53700452 221.15330663 62.125 215.0625 C53.44737759 209.98724877 44.73394432 204.97741233 36 200 C27.26605341 195.02258637 18.55275374 190.01252946 9.875 184.9375 C-8.06568757 174.44813529 -26.0528754 164.05520247 -44.20507812 153.93554688 C-52.88299359 149.08857298 -61.46938194 144.10112759 -70 139 C-71.07507812 138.35804688 -72.15015625 137.71609375 -73.2578125 137.0546875 C-75.50773489 135.70724094 -77.75557729 134.35657982 -80 133 C-77.05163811 129.78495871 -74.12712581 127.7563801 -70.30078125 125.6796875 C-69.1830835 125.06738281 -68.06538574 124.45507812 -66.91381836 123.82421875 C-66.32631805 123.50630371 -65.73881775 123.18838867 -65.1335144 122.86083984 C-62.0471837 121.18999761 -58.97362224 119.49592848 -55.8984375 117.8046875 C-55.29202927 117.4719281 -54.68562103 117.1391687 -54.06083679 116.79632568 C-49.47251865 114.27419649 -44.93571326 111.67891801 -40.4375 109 C-31.94544709 103.94606039 -23.3834545 99.01614445 -14.81811523 94.08789062 C-13.74891846 93.47236328 -12.67972168 92.85683594 -11.578125 92.22265625 C-10.62325195 91.67359619 -9.66837891 91.12453613 -8.68457031 90.55883789 C-7.35570801 89.78721313 -7.35570801 89.78721313 -6 89 C-5.13323135 88.64269806 -4.26646271 88.28539612 -3.37342834 87.91726685 C-0.61097828 86.11521131 -0.61097828 86.11521131 -0.36076355 82.37434387 C-0.32849383 80.83818428 -0.32387227 79.30130028 -0.34057617 77.76489258 C-0.33009247 76.92564743 -0.31960876 76.08640228 -0.30880737 75.22172546 C-0.27998831 72.44562113 -0.28635671 69.67075878 -0.29296875 66.89453125 C-0.27985783 64.97066174 -0.26455548 63.046806 -0.24714661 61.12297058 C-0.20721271 56.057798 -0.19710077 50.99298479 -0.19311523 45.92767334 C-0.18379958 40.75961344 -0.14639594 35.5917661 -0.11132812 30.42382812 C-0.04666688 20.28256209 -0.01349682 10.14145413 0 0 Z " fill="#FEFEFE" transform="translate(2513,2203)"/>
<path d="M0 0 C2.32641602 1.14477539 2.32641602 1.14477539 4.75390625 2.59765625 C5.67695557 3.14397705 6.60000488 3.69029785 7.55102539 4.25317383 C9.04170532 5.14879028 9.04170532 5.14879028 10.5625 6.0625 C12.71796463 7.33986785 14.8742493 8.61585271 17.03125 9.890625 C18.73087891 10.89706055 18.73087891 10.89706055 20.46484375 11.92382812 C25.85939595 15.10340359 31.30742084 18.1896113 36.75152588 21.28326416 C45.84184284 26.44958868 54.90304132 31.65055204 63.82421875 37.10546875 C67.82972217 39.49497571 71.92284564 41.73491425 76 44 C76 73.04 76 102.08 76 132 C37 154.5 37 154.5 30.58203125 158.1875 C26.56498583 160.50267433 22.56659345 162.845184 18.5866394 165.2232666 C16.20019442 166.64765487 13.80753319 168.06140853 11.41430664 169.47436523 C9.72380162 170.47843869 8.04243962 171.49785518 6.36132812 172.51757812 C5.33845703 173.12021484 4.31558594 173.72285156 3.26171875 174.34375 C1.91533325 175.15102539 1.91533325 175.15102539 0.54174805 175.97460938 C-2.55768995 177.22498298 -3.85668135 177.05095667 -7 176 C-9.48168945 174.82348633 -9.48168945 174.82348633 -12.11328125 173.33203125 C-13.10110596 172.77596191 -14.08893066 172.21989258 -15.10668945 171.64697266 C-16.16460693 171.04159668 -17.22252441 170.4362207 -18.3125 169.8125 C-19.42262451 169.1839209 -20.53274902 168.5553418 -21.67651367 167.90771484 C-33.17799608 161.3756871 -44.58135449 154.67551584 -56 148 C-69.86 140.08 -69.86 140.08 -84 132 C-84 102.96 -84 73.92 -84 44 C-71.625 37.07 -71.625 37.07 -59 30 C-50.08171082 24.81723083 -50.08171082 24.81723083 -41.17578125 19.61328125 C-34.96114645 15.9720276 -28.73067265 12.35864043 -22.49313354 8.75680542 C-20.78663931 7.77116227 -19.08093289 6.78415555 -17.37524414 5.79711914 C-15.82051392 4.89981079 -15.82051392 4.89981079 -14.234375 3.984375 C-13.31881836 3.45553711 -12.40326172 2.92669922 -11.45996094 2.38183594 C-10.64817383 1.92583008 -9.83638672 1.46982422 -9 1 C-8.33516602 0.58782227 -7.67033203 0.17564453 -6.98535156 -0.24902344 C-4.26404917 -1.27837983 -2.75866452 -0.85274543 0 0 Z " fill="#FEFEFE" transform="translate(2248,2049)"/>
</svg>
